<svg xmlns="http://www.w3.org/2000/svg" width="229.48" height="229.48" viewBox="0 0 229.48 229.48">
  <g id="Gruppe_263" data-name="Gruppe 263" transform="translate(-845.074 -1904.014)">
    <g id="Rechteck_36" data-name="Rechteck 36" transform="translate(855.074 1914.014)" fill="#bc2948" stroke="#fff" stroke-width="10">
      <rect width="209.48" height="209.48" stroke="none"/>
      <rect x="-5" y="-5" width="219.48" height="219.48" fill="none"/>
    </g>
    <g id="Gruppe_230" data-name="Gruppe 230" transform="translate(0 -564.007)">
      <g id="Gruppe_222" data-name="Gruppe 222" transform="translate(911.918 2532.616)">
        <path id="Pfad_175" data-name="Pfad 175" d="M1305.3,125.463a13.322,13.322,0,0,1-11.329,6.131h-.815a4.152,4.152,0,0,1-4.128-4.175,4.207,4.207,0,0,1,.355-1.694l8.263-18.784a4.118,4.118,0,0,1,7.9,1.693,4.194,4.194,0,0,1-.353,1.693l-3.961,8.994m-36.267.251h-6.894m19.1-31.812h-19.1m78.438,8.35-3.715-5.01a8.227,8.227,0,0,0-6.606-3.34H1286.2m.526-2.084a4.118,4.118,0,0,0-7.9-1.691L1277,88.152a4.2,4.2,0,0,0-.355,1.694,4.118,4.118,0,0,0,7.9,1.691l1.833-4.169A4.205,4.205,0,0,0,1286.731,85.675Zm-9.237,25.062a4.119,4.119,0,0,0-7.9-1.693l-5.5,12.506a4.206,4.206,0,0,0-.353,1.694,4.117,4.117,0,0,0,7.9,1.691l5.5-12.506A4.2,4.2,0,0,0,1277.494,110.736Zm11.476-4.6a4.182,4.182,0,0,0-3.774-5.867,4.124,4.124,0,0,0-3.769,2.484l-10.107,22.976a4.2,4.2,0,0,0-.353,1.694,4.117,4.117,0,0,0,7.9,1.691Zm9.033,0a4.182,4.182,0,0,0-3.774-5.867,4.124,4.124,0,0,0-3.769,2.484l-10.107,22.976a4.2,4.2,0,0,0-.353,1.694,4.117,4.117,0,0,0,7.9,1.691Zm49.857,14.962-5.861-.167m-27.867,2.9.847,1.273a4.228,4.228,0,0,1,.681,2.317,4.151,4.151,0,0,1-4.128,4.175,4.1,4.1,0,0,1-3.427-1.858l-6.874-10.415m21.034,1.775,2.643,4.008a.862.862,0,0,1,.1.187,4.183,4.183,0,0,1-3.549,6.3,4.068,4.068,0,0,1-3.427-1.858l-3.055-4.633-.847-1.273m16.246-5.469,4.438,6.742a4.243,4.243,0,0,1,.7,2.317,4.164,4.164,0,0,1-4.128,4.175,4.105,4.105,0,0,1-3.447-1.858l-2.931-4.446-2.766-4.195m8.133-2.735,4.438,6.742.31.458a4.128,4.128,0,0,0,7.575-2.317,4.087,4.087,0,0,0-.7-2.317l-13.311-20.893a2.576,2.576,0,0,1-.094-2.6,2.516,2.516,0,0,1,2.211-1.327h17.056" transform="translate(-1258.069 -81.5)" fill="none" stroke="#fff" stroke-linecap="round" stroke-miterlimit="10" stroke-width="3"/>
      </g>
    </g>
    <text id="Ergotherapie" transform="translate(957 2074.993)" fill="#fff" font-size="16" font-family="Avenir-Heavy, Avenir" font-weight="800"><tspan x="-49.2" y="0">Ergotherapie</tspan></text>
  </g>
</svg>
