<svg xmlns="http://www.w3.org/2000/svg" xmlns:xlink="http://www.w3.org/1999/xlink" width="370" height="370" viewBox="0 0 370 370">
  <defs>
    <clipPath id="clip-path">
      <path id="Pfad_129" data-name="Pfad 129" d="M0,109.375H178.625V-46.478H0Z" transform="translate(0 46.478)" fill="none"/>
    </clipPath>
  </defs>
  <g id="Gruppe_210" data-name="Gruppe 210" transform="translate(-523 -207)">
    <rect id="Rechteck_25" data-name="Rechteck 25" width="370" height="370" transform="translate(523 207)" fill="#2faee5"/>
    <g id="Gruppe_209" data-name="Gruppe 209" transform="translate(618.688 306.09)">
      <g id="Gruppe_128" data-name="Gruppe 128" transform="translate(0 0)" clip-path="url(#clip-path)">
        <g id="Gruppe_125" data-name="Gruppe 125" transform="translate(81.22)">
          <path id="Pfad_126" data-name="Pfad 126" d="M0,52.466c3.548-2.384,6.217-4.453,8.044-7.089,1.844,2.659,4.547,4.742,8.142,7.156L15.8,44.881c-3.658-2.961-4.762-5.523-4.762-11.428V-19.3a3,3,0,0,0-3-3,3,3,0,0,0-3,3v52.75c0,5.872-1.093,8.44-4.708,11.381Z" transform="translate(0 22.295)" fill="#fff"/>
        </g>
        <g id="Gruppe_126" data-name="Gruppe 126" transform="translate(96.665 17.384)">
          <path id="Pfad_127" data-name="Pfad 127" d="M49.05,36.069C41.6,18.934,6.849-23.793-10.916-13.844c-9.312,5.218-9.909,30.917-9.909,30.917s-.137,6.147.342,17.393c4.322,2.746,10.724,5.751,17.554,5.251C9.844,38.775,18.512,40.64,27,46.143a56,56,0,0,1,14.64,13.624,2.629,2.629,0,0,1-4.329,2.984,51.731,51.731,0,0,0-13.168-12.2c-6.284-4.074-13.219-6.582-26.685-5.593-.161.01-.319.013-.48.02C8.65,48.534,18.5,57.1,25.48,69.817A72.834,72.834,0,0,1,32.616,88.29a2.628,2.628,0,1,1-5.147,1.06C27.4,89.034,20.554,57.376-4.887,49.9A66.975,66.975,0,0,1,8.445,79.94a2.628,2.628,0,0,1-2.156,3.028,2.454,2.454,0,0,1-.439.037,2.633,2.633,0,0,1-2.589-2.19C.106,62.074-11.335,49.275-19.6,42.236c-.178-.131-.342-.265-.516-.4.557,9.808,1.536,22.293,3.239,37.06,4.47,38.74,22.346,40.229,32.4,42.466s36.876,5.959,43.207-14.9-1.023-50.483-9.684-70.4" transform="translate(20.843 15.327)" fill="#fff"/>
        </g>
        <g id="Gruppe_127" data-name="Gruppe 127" transform="translate(0.001 17.384)">
          <path id="Pfad_128" data-name="Pfad 128" d="M8.467,36.069c7.448-17.135,42.2-59.863,59.966-49.913,9.312,5.218,9.909,30.917,9.909,30.917S78.48,23.22,78,34.467c-4.322,2.746-10.724,5.751-17.554,5.251-12.773-.942-21.441.922-29.928,6.425a56,56,0,0,0-14.64,13.624,2.629,2.629,0,0,0,4.329,2.984,51.731,51.731,0,0,1,13.168-12.2C39.659,46.478,46.6,43.97,60.06,44.959c.161.01.319.013.48.02C48.867,48.534,39.018,57.1,32.037,69.817A72.834,72.834,0,0,0,24.9,88.29a2.628,2.628,0,1,0,5.147,1.06c.067-.315,6.914-31.973,32.356-39.451A66.975,66.975,0,0,0,49.072,79.94a2.628,2.628,0,0,0,2.156,3.028,2.429,2.429,0,0,0,.439.037,2.633,2.633,0,0,0,2.589-2.19c3.155-18.741,14.6-31.541,22.859-38.579.178-.131.342-.265.52-.4-.56,9.808-1.539,22.293-3.243,37.06-4.47,38.74-22.346,40.229-32.4,42.466s-36.876,5.959-43.207-14.9,1.023-50.483,9.684-70.4" transform="translate(3.598 15.327)" fill="#fff"/>
        </g>
      </g>
    </g>
  </g>
</svg>
