<svg xmlns="http://www.w3.org/2000/svg" xmlns:xlink="http://www.w3.org/1999/xlink" width="270" height="270" viewBox="0 0 270 270">
  <defs>
    <clipPath id="clip-path">
      <path id="Pfad_129" data-name="Pfad 129" d="M0,50.388H111.019V-46.478H0Z" transform="translate(0 46.478)" fill="none"/>
    </clipPath>
  </defs>
  <g id="Gruppe_247" data-name="Gruppe 247" transform="translate(-735 -1913)">
    <g id="Rechteck_8" data-name="Rechteck 8" transform="translate(735 1913)" fill="#2faee5" stroke="#fff" stroke-width="10">
      <rect width="270" height="270" stroke="none"/>
      <rect x="5" y="5" width="260" height="260" fill="none"/>
    </g>
    <g id="Gruppe_129" data-name="Gruppe 129" transform="translate(814.491 1961.567)">
      <g id="Gruppe_128" data-name="Gruppe 128" transform="translate(0 0)" clip-path="url(#clip-path)">
        <g id="Gruppe_125" data-name="Gruppe 125" transform="translate(50.48)">
          <path id="Pfad_126" data-name="Pfad 126" d="M0,24.17a18.007,18.007,0,0,0,5-4.406,18.216,18.216,0,0,0,5.06,4.448l-.238-4.756c-2.274-1.84-2.959-3.433-2.959-7.1V-20.432A1.864,1.864,0,0,0,5-22.3a1.863,1.863,0,0,0-1.863,1.863V12.353C3.137,16,2.457,17.6.21,19.427Z" transform="translate(0 22.295)" fill="#fff"/>
        </g>
        <g id="Gruppe_126" data-name="Gruppe 126" transform="translate(60.079 10.804)">
          <path id="Pfad_127" data-name="Pfad 127" d="M22.6,16.617C17.968,5.967-3.632-20.589-14.674-14.405-20.461-11.163-20.832,4.81-20.832,4.81s-.085,3.82.213,10.81c2.686,1.707,6.665,3.574,10.91,3.264,7.938-.586,13.326.573,18.6,3.993a34.8,34.8,0,0,1,9.1,8.468A1.634,1.634,0,0,1,15.3,33.2a32.152,32.152,0,0,0-8.184-7.582C3.21,23.086-1.1,21.527-9.47,22.142c-.1.006-.2.008-.3.013C-2.513,24.363,3.608,29.69,7.947,37.591a45.268,45.268,0,0,1,4.435,11.481,1.633,1.633,0,1,1-3.2.659c-.042-.2-4.3-19.872-20.11-24.52A41.626,41.626,0,0,1-2.64,43.883a1.633,1.633,0,0,1-1.34,1.882,1.525,1.525,0,0,1-.273.023,1.636,1.636,0,0,1-1.609-1.361c-1.961-11.648-9.072-19.6-14.207-23.978-.11-.081-.213-.165-.321-.246.346,6.1.955,13.855,2.013,23.034C-15.6,67.315-4.488,68.24,1.762,69.63s22.919,3.7,26.854-9.26S27.98,28.994,22.6,16.617" transform="translate(20.843 15.327)" fill="#fff"/>
        </g>
        <g id="Gruppe_127" data-name="Gruppe 127" transform="translate(0.001 10.804)">
          <path id="Pfad_128" data-name="Pfad 128" d="M3.9,16.617c4.629-10.65,26.229-37.206,37.27-31.022C46.958-11.163,47.329,4.81,47.329,4.81s.085,3.82-.213,10.81c-2.686,1.707-6.665,3.574-10.91,3.264-7.938-.586-13.326.573-18.6,3.993a34.8,34.8,0,0,0-9.1,8.468A1.634,1.634,0,0,0,11.2,33.2a32.152,32.152,0,0,1,8.184-7.582c3.906-2.532,8.218-4.091,16.585-3.476.1.006.2.008.3.013C29.01,24.363,22.889,29.69,18.55,37.591a45.268,45.268,0,0,0-4.435,11.481,1.633,1.633,0,1,0,3.2.659c.042-.2,4.3-19.872,20.11-24.52a41.626,41.626,0,0,0-8.286,18.672,1.633,1.633,0,0,0,1.34,1.882,1.509,1.509,0,0,0,.273.023,1.636,1.636,0,0,0,1.609-1.361c1.961-11.648,9.072-19.6,14.207-23.978.11-.081.213-.165.323-.246-.348,6.1-.957,13.855-2.015,23.034C42.1,67.315,30.986,68.24,24.735,69.63s-22.919,3.7-26.854-9.26S-1.483,28.994,3.9,16.617" transform="translate(3.598 15.327)" fill="#fff"/>
        </g>
      </g>
    </g>
    <text id="Pulmologische_Rehabilitation" data-name="Pulmologische
Rehabilitation" transform="translate(870 2108)" fill="#fff" font-size="24" font-family="Avenir-Heavy, Avenir" font-weight="800"><tspan x="-81.108" y="0">Pulmologische</tspan><tspan x="-77.832" y="30">Rehabilitation</tspan></text>
  </g>
</svg>
