<svg xmlns="http://www.w3.org/2000/svg" width="232" height="233" viewBox="0 0 232 233">
  <g id="Gruppe_251" data-name="Gruppe 251" transform="translate(-659 -4477)">
    <g id="Rechteck_41" data-name="Rechteck 41" transform="translate(659 4477)" fill="#4fa79e" stroke="#fff" stroke-width="10">
      <rect width="232" height="233" stroke="none"/>
      <rect x="5" y="5" width="222" height="223" fill="none"/>
    </g>
    <text id="Neurologische_Rehabilitation" data-name="Neurologische
Rehabilitation" transform="translate(770 4643)" fill="#fff" font-size="19" font-family="Avenir-Heavy, Avenir" font-weight="800"><tspan x="-64.211" y="0">Neurologische</tspan><tspan x="-61.617" y="24">Rehabilitation</tspan></text>
    <g id="Gruppe_244" data-name="Gruppe 244" transform="translate(738.343 4521.212)">
      <path id="Pfad_196" data-name="Pfad 196" d="M39.144,67.821a2.911,2.911,0,0,1,3.783-2.8,14.447,14.447,0,0,1,5.479,2.911,16.494,16.494,0,0,1,5.842,11.606,3.153,3.153,0,0,1-2.185,3.415,2.966,2.966,0,0,1-3.448-1.535,6.535,6.535,0,0,1-.452-1.932c-.593-4.1-2.628-7.067-6.593-8.575-1.707-.649-2.43-1.6-2.426-3.087" transform="translate(-26.898 -19.132)" fill="#fff"/>
      <path id="Pfad_197" data-name="Pfad 197" d="M76.788,60.272a12.94,12.94,0,0,1-12.086-8.4,22.738,22.738,0,0,1-1.147-3.75,2.971,2.971,0,0,1,5.751-1.452c.312.871.539,1.771.876,2.631,1.422,3.617,3.994,5.163,7.872,4.769a3.02,3.02,0,0,1,3.433,3.914A2.559,2.559,0,0,1,79.6,59.849c-.92.216-1.874.287-2.815.422" transform="translate(-17.762 -26.752)" fill="#fff"/>
      <path id="Pfad_198" data-name="Pfad 198" d="M44.986,54.839a3.2,3.2,0,0,1-3.23-1.551,2.991,2.991,0,0,1,2.552-4.5,16.834,16.834,0,0,0,2.147-.206,4.99,4.99,0,0,0,3.987-3.657c.56-1.814,1.918-2.792,3.444-2.515a3.021,3.021,0,0,1,2.442,3.919A11.163,11.163,0,0,1,46.9,54.639c-.637.077-1.276.133-1.916.2" transform="translate(-26.075 -27.59)" fill="#fff"/>
      <path id="Pfad_199" data-name="Pfad 199" d="M37.6,66.341a17.084,17.084,0,0,1,10.08-1.879,25.384,25.384,0,0,1,4.98.976,2.889,2.889,0,0,1,1.382,4.346A3.118,3.118,0,0,1,50.3,70.975a17,17,0,0,0-5.513-.535,8.735,8.735,0,0,0-6.527,3.188,8.223,8.223,0,0,0-.7,9.372,8.5,8.5,0,0,0,3.482,2.855,3.032,3.032,0,0,1,1.88,3.3c-.087.711-.3,1.405-.391,2.117-.364,2.881.184,4.984,3.647,6a13.615,13.615,0,0,0,3.49.527,3.365,3.365,0,0,1,3.433,2.64,5.1,5.1,0,0,0,2.909,3.309,10.089,10.089,0,0,0,4.8.934,2.816,2.816,0,0,0,2.887-3.037q0-29.618-.018-59.237a14.247,14.247,0,0,0-.45-3.193c-.271-1.154-.622-1.36-1.781-1.432a15.34,15.34,0,0,0-5.8.664c-3.327,1.1-6.043,2.94-7.346,6.4A3.3,3.3,0,0,1,45.523,46.9a10.1,10.1,0,0,0-7.539,5.553c-2.378,4.508-1.846,9.13-.386,13.886M96.52,75.958c-.243.212-.469.413-.7.605-3.566,2.94-7.545,4.569-12.267,3.936a3.03,3.03,0,0,1-2.6-4.255,3.1,3.1,0,0,1,3.6-1.716,7.078,7.078,0,0,0,4.075-.571c3.715-1.758,6.472-4.353,7.589-8.5,1.059-3.941,1.484-7.855-.066-11.729a10.306,10.306,0,0,0-8.121-6.814,3.784,3.784,0,0,1-2.939-2.32,10.7,10.7,0,0,0-1.847-2.9C80.116,38.473,76.141,37.547,71.8,37.8a1.434,1.434,0,0,0-1.459,1.242,21.608,21.608,0,0,0-.476,3.5q-.043,29.5-.021,59.009c0,.077,0,.154,0,.232a2.72,2.72,0,0,0,2.723,2.854,16.178,16.178,0,0,0,3.581-.4,5.347,5.347,0,0,0,3.23-1.9c-.051-.089-.063-.149-.1-.173-3.32-2.33-4.519-5.678-4.574-9.561a3.166,3.166,0,0,1,2.31-3.266A2.942,2.942,0,0,1,80.5,90.946a7.912,7.912,0,0,1,.452,2.554c.194,2.669,1.949,4.445,4.439,4.152a11.863,11.863,0,0,0,3.7-1.168,3.514,3.514,0,0,0,1.972-3.424,18.8,18.8,0,0,0-.386-3.279A3.29,3.29,0,0,1,92.42,85.9a19.43,19.43,0,0,0,1.786-1.066,7.269,7.269,0,0,0,2.313-8.873m-34.7,34.864H58.881c-.8-.164-1.6-.307-2.394-.5a12.273,12.273,0,0,1-8.432-6.085,1.278,1.278,0,0,0-.763-.5c-.871-.215-1.771-.311-2.639-.535a10.669,10.669,0,0,1-8.2-12.288.918.918,0,0,0-.484-1.009,11.84,11.84,0,0,1-3.457-3.493c-3.133-4.988-2.893-10.017-.074-15.035a1.285,1.285,0,0,0,.095-1.267,26.859,26.859,0,0,1-2.1-13.337c.8-6.653,3.895-11.8,10.105-14.633a10.222,10.222,0,0,0,4.325-3.433C47.575,35,51.476,33.017,55.936,32.1c.875-.18,1.756-.323,2.635-.483h3.713c.065.041.125.109.194.118a8.554,8.554,0,0,1,4.036,1.6c.124.095.454.01.644-.084.664-.326,1.286-.754,1.969-1.027a19.743,19.743,0,0,1,2.129-.6h3.712a4.21,4.21,0,0,0,.5.164c1.212.224,2.449.344,3.631.675a17.209,17.209,0,0,1,10.052,6.857c.814,1.209,1.6,2.206,3.1,2.43a2.86,2.86,0,0,1,.776.334c6.741,3.31,9.8,8.965,10.21,16.231a27.6,27.6,0,0,1-2.266,11.952,1.393,1.393,0,0,0,.074.97c.418.965.975,1.873,1.344,2.854A13.345,13.345,0,0,1,97.572,89.9a1.038,1.038,0,0,0-.454,1.163,10.652,10.652,0,0,1-2.383,8.577,11.657,11.657,0,0,1-7.2,3.849c-1.25.206-2.253.5-2.708,1.8a2.65,2.65,0,0,1-.5.683,12.629,12.629,0,0,1-7.276,4.351c-.794.187-1.6.331-2.4.5H71.72c-1.08-.367-2.18-.684-3.229-1.121-.6-.25-1.129-.985-1.681-.976-.59.01-1.135.719-1.76.978-1.052.435-2.151.752-3.23,1.119" transform="translate(-30.24 -31.62)" fill="#fff"/>
    </g>
  </g>
</svg>
