<svg xmlns="http://www.w3.org/2000/svg" width="229.48" height="229.48" viewBox="0 0 229.48 229.48">
  <g id="Gruppe_260" data-name="Gruppe 260" transform="translate(-125 -1904.014)">
    <g id="Rechteck_35" data-name="Rechteck 35" transform="translate(135 1914.014)" fill="#104895" stroke="#fff" stroke-width="10">
      <rect width="209.48" height="209.48" stroke="none"/>
      <rect x="-5" y="-5" width="219.48" height="219.48" fill="none"/>
    </g>
    <g id="Gruppe_229" data-name="Gruppe 229" transform="translate(0 -564.007)">
      <g id="Gruppe_220" data-name="Gruppe 220" transform="translate(204.598 2530.986)">
        <path id="Pfad_174" data-name="Pfad 174" d="M801.3,128.386c8.47-9.067,22.239-10.075,37.042-3.953,14.335,5.926,27.024,7.479,37.084-1.587M801.3,88.273c8.47-9.067,22.239-10.075,37.042-3.955,14.335,5.928,27.024,7.481,37.084-1.586m-74.127,25.6c8.47-9.067,22.239-10.075,37.042-3.953,14.335,5.926,27.024,7.479,37.084-1.587" transform="translate(-801.302 -80.448)" fill="none" stroke="#fff" stroke-linecap="round" stroke-linejoin="round" stroke-width="3"/>
      </g>
    </g>
    <text id="Thermo-_Hydro-_Balneotherapie" data-name="Thermo-/Hydro-/
Balneotherapie" transform="translate(240 2064.993)" fill="#fff" font-size="16" font-family="Avenir-Heavy, Avenir" font-weight="800"><tspan x="-63.104" y="0">Thermo-/Hydro-/</tspan><tspan x="-57.048" y="20">Balneotherapie</tspan></text>
  </g>
</svg>
