<svg xmlns="http://www.w3.org/2000/svg" width="232" height="233" viewBox="0 0 232 233">
  <g id="Gruppe_249" data-name="Gruppe 249" transform="translate(-135 -4477)">
    <g id="Rechteck_40" data-name="Rechteck 40" transform="translate(135 4477)" fill="#d5b64f" stroke="#fff" stroke-width="10">
      <rect width="232" height="233" stroke="none"/>
      <rect x="5" y="5" width="222" height="223" fill="none"/>
    </g>
    <text id="Onkologische_Rehabilitation" data-name="Onkologische
Rehabilitation" transform="translate(245 4643)" fill="#fff" font-size="19" font-family="Avenir-Heavy, Avenir" font-weight="800"><tspan x="-60.686" y="0">Onkologische</tspan><tspan x="-61.617" y="24">Rehabilitation</tspan></text>
    <g id="Gruppe_242" data-name="Gruppe 242" transform="translate(213.043 4520.355)">
      <path id="Pfad_190" data-name="Pfad 190" d="M50.57,74.9V69.13c-1.057.962-1.941,1.741-2.783,2.563a.655.655,0,0,0-.022.64c.86.831,1.759,1.619,2.8,2.562M85.654,68.8V74.2l.221.143c.882-.815,1.776-1.618,2.627-2.462.089-.089.017-.5-.112-.626-.836-.789-1.71-1.538-2.736-2.447M61.64,55.286l-.076-.308a18.335,18.335,0,0,1-3.009-.947c-.88-.446-1.024,0-1.176.619s-.288,1.26-.38,1.9c-.071.489-.066.99-.1,1.636l4.743-2.9M79.451,85.669l-.3-.1c-1.531.948-3.061,1.895-4.837,3,1.58.517,2.875.941,4.308,1.412.306-1.587.569-2.948.832-4.308m-22.372,0-.289.131c.3,1.456.6,2.91.893,4.351,1.5-.162,3.845-1.128,4.226-1.695l-4.83-2.788M74,55.033l5.192,3.012.27-.123c-.313-1.488-.628-2.975-.965-4.565L74,55.033m-6.247,51.9a5.22,5.22,0,0,0,3.5-1.556c2.861-2.717,4.33-6.256,5.729-9.826a.722.722,0,0,0-.529-1.064c-2.4-.8-4.8-1.637-7.169-2.541a2.454,2.454,0,0,0-1.942.011q-3.788,1.5-7.616,2.882c-.554.2-.587.487-.411.9.624,1.47,1.2,2.964,1.924,4.384a14.68,14.68,0,0,0,4.638,5.926,12.026,12.026,0,0,0,1.875.882m9.241-58.439a1.463,1.463,0,0,0-.045-.541c-.625-1.46-1.211-2.939-1.927-4.354a15.479,15.479,0,0,0-4.314-5.741c-1.991-1.484-3.064-1.44-5-.115A13.447,13.447,0,0,0,61.59,42.9c-.853,1.63-1.569,3.338-2.278,5.039-.154.368-.454.933.326,1.2,2.423.829,4.838,1.677,7.232,2.585a2.5,2.5,0,0,0,2.016.017c2.643-1.1,5.313-2.132,8.108-3.245m-30.83,3.152-.017.092a24.468,24.468,0,0,0-2.871.155,14.454,14.454,0,0,0-3.48.885c-2.515,1.123-2.906,2.8-2.064,5.733,1.044,3.634,3.305,6.583,5.684,9.438A.642.642,0,0,0,44.471,68c1.976-1.749,3.979-3.468,5.937-5.236a2.5,2.5,0,0,0,.777-1.25c.526-2.7.969-5.408,1.458-8.113.119-.66-.1-1-.775-1.078-1.9-.217-3.8-.447-5.7-.674M89.6,91.99l.011-.138a19.093,19.093,0,0,0,2.594-.022,21.238,21.238,0,0,0,3.771-.79c2.994-1,3.328-2.8,2.567-5.674-.97-3.665-3.2-6.691-5.671-9.525-.422-.487-.72-.488-1.205-.042A49.447,49.447,0,0,1,87.46,79.44c-1.766,1.289-2.975,2.759-2.748,5.077a2.419,2.419,0,0,1-.124.633c-.329,1.727-.663,3.451-.977,5.179-.087.468-.152.916.572.993,1.809.194,3.613.442,5.42.668m1.587-40.763c-2.211.229-4.42.466-6.632.688-.817.082-1.18.371-1,1.313.512,2.664.9,5.35,1.384,8.02a1.964,1.964,0,0,0,.565,1.095c2.02,1.711,4.1,3.356,6.117,5.069.463.393.745.421,1.142-.015.642-.7,1.363-1.337,1.963-2.071,2.12-2.588,4.372-5.064,5.311-8.447a4.147,4.147,0,0,0-1.724-4.231c-2.241-1.208-4.656-1.33-7.127-1.421M41.273,94.239c1.131-.179,2.081-.271,3-.487,2.453-.575,4.9-1.162,7.331-1.826,1.251-.343,1.253-.485,1.022-1.762-.466-2.581-.885-5.169-1.394-7.742a2.568,2.568,0,0,0-.817-1.323c-1.84-1.6-3.754-3.1-5.586-4.707-.622-.545-.969-.58-1.531.074-3.1,3.623-5.889,7.456-7.153,12.121-.568,2.095-.352,3.97,1.977,4.964a15.792,15.792,0,0,0,3.15.687m14.54-22.227h-.008c0,1.948.011,3.9-.006,5.842a1.74,1.74,0,0,0,.888,1.59,82.658,82.658,0,0,0,11.1,6.317A1.248,1.248,0,0,0,68.8,85.7c3.568-2.1,7.109-4.237,10.671-6.343a1.97,1.97,0,0,0,1-1.839c.011-3.865.031-7.731-.036-11.594a2.11,2.11,0,0,0-.755-1.566c-3.729-2.2-7.509-4.309-11.291-6.417a1.138,1.138,0,0,0-.885.038,65.829,65.829,0,0,0-10.939,6.555,1.888,1.888,0,0,0-.719,1.27c-.074,2.068-.032,4.139-.032,6.21M89.776,97.09c-2.192-.313-4.458-.6-6.709-.977-.8-.133-1.134.112-1.4.864-1.637,4.623-3.687,9.017-7.437,12.365a8.785,8.785,0,0,1-6.8,2.534,9.958,9.958,0,0,1-5.888-2.948c-2.936-2.745-4.7-6.228-6.222-9.865a12.181,12.181,0,0,1-.716-1.876c-.166-.706-.5-.777-1.137-.638-2.943.645-5.873,1.4-8.85,1.816a53.523,53.523,0,0,1-7.739.372A7.237,7.237,0,0,1,31.4,96.525a6.144,6.144,0,0,1-1.372-5.66c1.421-6.893,5.488-12.349,9.69-17.722.583-.747.677-1.172-.021-1.977a31.3,31.3,0,0,1-6.573-10.831c-1.049-3.286-1.214-6.519,1.025-9.444a10.443,10.443,0,0,1,6.321-3.6,30,30,0,0,1,12.158.119c1.253.228,1.429.607,2-1a32.582,32.582,0,0,1,5.225-9.828,13,13,0,0,1,5.663-4.365,7.833,7.833,0,0,1,7,.877,16.487,16.487,0,0,1,6,6.681c1.177,2.274,2.118,4.669,3.215,6.987a1.044,1.044,0,0,0,.854.4c1.258-.117,2.506-.414,3.764-.474a81.09,81.09,0,0,1,8.8-.21A11.9,11.9,0,0,1,103,49.5a7.277,7.277,0,0,1,2.036,7.029c-1.079,5.842-4.772,10.076-8.587,14.24-.566.619-.59.991-.052,1.6a30.945,30.945,0,0,1,6.765,11.147c1.054,3.384,1.13,6.712-1.373,9.609a10.323,10.323,0,0,1-6.119,3.251c-1.9.364-3.855.475-5.9.712" transform="translate(-29.851 -31.752)" fill="#fff"/>
    </g>
  </g>
</svg>
