<svg xmlns="http://www.w3.org/2000/svg" width="229.48" height="229.48" viewBox="0 0 229.48 229.48">
  <g id="Gruppe_261" data-name="Gruppe 261" transform="translate(-365.558 -1904.014)">
    <g id="Rechteck_37" data-name="Rechteck 37" transform="translate(375.558 1914.014)" fill="#266b53" stroke="#fff" stroke-width="10">
      <rect width="209.48" height="209.48" stroke="none"/>
      <rect x="-5" y="-5" width="219.48" height="219.48" fill="none"/>
    </g>
    <g id="Gruppe_228" data-name="Gruppe 228" transform="translate(0 -564.007)">
      <g id="Gruppe_224" data-name="Gruppe 224" transform="translate(447.354 2516.094)">
        <path id="Pfad_176" data-name="Pfad 176" d="M991.515,131.409v18.025m-8.362-18.025h20.828a8.931,8.931,0,0,0,8.232-5.466l7.225-12.512a6.593,6.593,0,0,0-6.076-9.152H1003.15c-6.778,0-11.634-4.821-11.634-12.827V86.376m-8.362,3.109V75.011a4.181,4.181,0,1,1,8.362,0v44.318m-23.662,9.912,1.672,3.345v16.848m13.627-30.105h-18.4a6.689,6.689,0,0,0-6.688,6.691l0,23.414" transform="translate(-958.067 -70.83)" fill="none" stroke="#fff" stroke-linecap="round" stroke-miterlimit="10" stroke-width="3"/>
        <path id="Pfad_177" data-name="Pfad 177" d="M998.5,84.4a6.176,6.176,0,1,1-6.174-6.174A6.174,6.174,0,0,1,998.5,84.4Z" transform="translate(-942.663 -66.771)" fill="none" stroke="#fff" stroke-linecap="round" stroke-linejoin="round" stroke-width="3"/>
        <path id="Pfad_178" data-name="Pfad 178" d="M977.818,94.636a6.176,6.176,0,1,1-6.176-6.176A6.176,6.176,0,0,1,977.818,94.636Z" transform="translate(-954.008 -61.159)" fill="none" stroke="#fff" stroke-linecap="round" stroke-linejoin="round" stroke-width="3"/>
        <line id="Linie_62" data-name="Linie 62" y2="38.528" transform="translate(61.887 40.075)" fill="none" stroke="#fff" stroke-linecap="round" stroke-miterlimit="10" stroke-width="3"/>
      </g>
    </g>
    <text id="Physiotherapie" transform="translate(479 2074.993)" fill="#fff" font-size="16" font-family="Avenir-Heavy, Avenir" font-weight="800"><tspan x="-55.568" y="0">Physiotherapie</tspan></text>
  </g>
</svg>
