<svg xmlns="http://www.w3.org/2000/svg" xmlns:xlink="http://www.w3.org/1999/xlink" width="270" height="270" viewBox="0 0 270 270">
  <defs>
    <clipPath id="clip-path">
      <path id="Pfad_125" data-name="Pfad 125" d="M0,40.521H98.982V-47.452H0Z" transform="translate(0 47.452)" fill="none"/>
    </clipPath>
  </defs>
  <g id="Gruppe_245" data-name="Gruppe 245" transform="translate(-135 -1913)">
    <g id="Rechteck_6" data-name="Rechteck 6" transform="translate(135 1913)" fill="#d52f2b" stroke="#fff" stroke-width="10">
      <rect width="270" height="270" stroke="none"/>
      <rect x="5" y="5" width="260" height="260" fill="none"/>
    </g>
    <g id="Gruppe_124" data-name="Gruppe 124" transform="translate(220.581 1966.013)">
      <g id="Gruppe_123" data-name="Gruppe 123" transform="translate(0 0)" clip-path="url(#clip-path)">
        <g id="Gruppe_122" data-name="Gruppe 122" transform="translate(0.001 0)">
          <path id="Pfad_124" data-name="Pfad 124" d="M14.01,2.672A21.8,21.8,0,0,0,6.774,3.908C-2.961,7.318-9.433,16.975-10.542,29.743A23.363,23.363,0,0,0-8.393,41.208c8.072,18.315,35.2,33.74,41.476,37.121C39.386,74.933,66.7,59.386,74.65,41a23.238,23.238,0,0,0,2.058-11.261C75.6,16.975,69.127,7.318,59.394,3.908c-8.421-2.951-17.7-.53-24.211,6.316l-2.1,2.2-2.1-2.2A23.478,23.478,0,0,0,14.01,2.672M33.085,84.844l-1.3-.654c-1.448-.73-35.544-18.106-45.475-40.646a29.075,29.075,0,0,1-2.618-14.3C-15,14.14-7.086,2.625,4.859-1.559A28.311,28.311,0,0,1,33.085,4.216,28.306,28.306,0,0,1,61.309-1.559c11.945,4.184,19.859,15.7,21.17,30.8A28.964,28.964,0,0,1,79.967,43.3C70.173,65.958,35.844,83.455,34.386,84.188Z" transform="translate(16.406 3.129)" fill="#fff"/>
        </g>
      </g>
    </g>
    <text id="Herz-Kreislauf_Rehabilitation" data-name="Herz-Kreislauf
Rehabilitation" transform="translate(270 2108)" fill="#fff" font-size="24" font-family="Avenir-Heavy, Avenir" font-weight="800"><tspan x="-78.696" y="0">Herz-Kreislauf</tspan><tspan x="-77.832" y="30">Rehabilitation</tspan></text>
  </g>
</svg>
