<svg xmlns="http://www.w3.org/2000/svg" xmlns:xlink="http://www.w3.org/1999/xlink" width="270" height="270" viewBox="0 0 270 270">
  <defs>
    <clipPath id="clip-path">
      <path id="Pfad_131" data-name="Pfad 131" d="M0,51.527H82.677V-47.529H0Z" transform="translate(0 47.529)" fill="none"/>
    </clipPath>
  </defs>
  <g id="Gruppe_248" data-name="Gruppe 248" transform="translate(-1035 -1913)">
    <g id="Rechteck_9" data-name="Rechteck 9" transform="translate(1035 1913)" fill="#ef7d14" stroke="#fff" stroke-width="10">
      <rect width="270" height="270" stroke="none"/>
      <rect x="5" y="5" width="260" height="260" fill="none"/>
    </g>
    <g id="Gruppe_132" data-name="Gruppe 132" transform="translate(1129 1966.013)">
      <g id="Gruppe_131" data-name="Gruppe 131" transform="translate(0 0)" clip-path="url(#clip-path)">
        <g id="Gruppe_130" data-name="Gruppe 130" transform="translate(0 0.002)">
          <path id="Pfad_130" data-name="Pfad 130" d="M24.9,51.526a3.491,3.491,0,0,1-1.882-.55,3.635,3.635,0,0,1-1.125-4.966c2.172-3.537,4.024-8.751,3.21-10.573-.06-.135-.238-.529-1.338-.754a56.878,56.878,0,0,0-8.526.479C7.75,36.274-2.389,36.518-8.2,31.348a12.913,12.913,0,0,1-4.216-10.181A11.1,11.1,0,0,1-8.122,12.52c3.241-2.58,9.714-5.048,22.144-2.157,8.743,2.032,15.866,3.064,21.175,3.064H35.2c5.542,0,9.147-1.125,10.152-3.162.8-1.632,1.582-3.912.734-5.521-.877-1.663-3.614-2.9-7.507-3.393C29.3.173,22.533.446,5.658,2.681c-7.649,1.013-17.263-.35-21.3-7.211A9.991,9.991,0,0,1-15.2-15.639C-9.987-23-3.191-25.749,10.77-26.153a63.323,63.323,0,0,1,18.6,2.388,54.576,54.576,0,0,0,15.006,2.124c2.722-.038,6.263-.667,7.667-3.453a5.216,5.216,0,0,0-.123-4.964C47.638-36.27,37.07-39.71,20.512-40.284a62.619,62.619,0,0,0-37.75,11,3.519,3.519,0,0,1-4.979-.638,3.637,3.637,0,0,1,.617-5.05c.692-.546,17.215-13.382,42.353-12.517,19.176.665,31.274,5.012,36.987,13.293a12.476,12.476,0,0,1,.627,12.384c-1.363,2.7-4.981,7.253-13.895,7.376A61.5,61.5,0,0,1,27.7-16.76c-5.01-1.23-9.741-2.393-16.727-2.188-14.264.413-17.567,3.51-20.4,7.515A2.751,2.751,0,0,0-9.55-8.226C-8.012-5.616-3-3.441,4.739-4.466,21.08-6.629,28.783-7.154,39.462-5.8,47.54-4.776,50.929-1.35,52.351,1.343c1.259,2.388,2.17,6.434-.644,12.144-3.931,7.976-16.41,9.216-39.271,3.9-10.594-2.463-14.839-.261-16.173.8a3.883,3.883,0,0,0-1.574,3.087,5.658,5.658,0,0,0,1.8,4.656c2.9,2.578,9.356,3.343,17.717,2.1a64.159,64.159,0,0,1,10.023-.546l.231.008.227.038c4.179.69,6.05,3.066,6.884,4.937,2.82,6.321-2.555,15.577-3.66,17.367A3.542,3.542,0,0,1,24.9,51.526" transform="translate(22.965 47.528)" fill="#fff"/>
        </g>
      </g>
    </g>
    <text id="Stoffwechsel_Rehabilitation" data-name="Stoffwechsel
Rehabilitation" transform="translate(1170 2108)" fill="#fff" font-size="24" font-family="Avenir-Heavy, Avenir" font-weight="800"><tspan x="-71.556" y="0">Stoffwechsel</tspan><tspan x="-77.832" y="30">Rehabilitation</tspan></text>
  </g>
</svg>
