<svg xmlns="http://www.w3.org/2000/svg" width="232" height="233" viewBox="0 0 232 233">
  <g id="Gruppe_250" data-name="Gruppe 250" transform="translate(-397 -4477)">
    <g id="Rechteck_43" data-name="Rechteck 43" transform="translate(397 4477)" fill="#b0c628" stroke="#fff" stroke-width="10">
      <rect width="232" height="233" stroke="none"/>
      <rect x="5" y="5" width="222" height="223" fill="none"/>
    </g>
    <text id="Psychiatrische_Rehabilitation" data-name="Psychiatrische
Rehabilitation" transform="translate(510 4643)" fill="#fff" font-size="19" font-family="Avenir-Heavy, Avenir" font-weight="800"><tspan x="-62.12" y="0">Psychiatrische</tspan><tspan x="-61.617" y="24">Rehabilitation</tspan></text>
    <g id="Gruppe_243" data-name="Gruppe 243" transform="translate(474.407 4518.64)">
      <path id="Pfad_191" data-name="Pfad 191" d="M72.548,21.7c14.954-6.184,34.491-2.825,44.988,9.953,4.563,5.243,3.537,12.442,4.615,18.774.7,5.409,6.885,8.14,7.272,13.634.085,3.705-3.924,5.024-6.09,7.284.158,2.669.66,5.359-.021,7.995.158,4.447-.22,9.178-2.071,13.27-3.9,5.128-11.24,2.731-16.755,3.275-.439,2.218-.847,4.447-1.255,6.688q-2.654-.018-5.306,0c1.068-3.82,1.036-8.163,3.213-11.554,4.929-.743,9.972.262,14.892-.555,2.406-1.915,1.36-5.735,2.239-8.435-2.156-1.853-2.816-4.875.1-6.352-.052-2.177-.648-4.532.378-6.572,1.1-2.49,3.693-3.672,5.8-5.159-2.324-3.432-5.579-6.331-6.877-10.36-1.506-4.562-1.014-9.438-1.757-14.116-1.288-4.678-5.211-8.048-9.177-10.539-10.11-6.1-23.431-7.022-34.053-1.664-9.554,4.8-15.844,15.707-14.546,26.422C59.163,61.463,63.79,68.1,65.757,75.6c2.647,9.052-1.686,18.062-3.024,26.968H57.323c1.371-9.221,6.53-18.733,2.783-27.994-2.931-7.513-7.1-14.891-7.168-23.18-.461-12.726,8.015-24.833,19.61-29.7" transform="translate(-52.92 -18.687)" fill="#fff"/>
      <path id="Pfad_192" data-name="Pfad 192" d="M77.8,27.939a6.228,6.228,0,0,1,7.931-.428c.587-.253,1.78-.743,2.376-1,1.152.419,2.282.88,3.4,1.36a6.775,6.775,0,0,1,8.664,2.156,7.349,7.349,0,0,1,5.589,4.374c1.591,1.331,3.934,2.5,3.768,4.93-.083,3.463,1.957,8.194-1.695,10.475a5.84,5.84,0,0,1-8.393-2.3q-2.935-1.365-5.787-2.867c-1.707-.22-3.4-.5-5.086-.837-.607.23-1.2.461-1.8.691,4.05,1.579,8.812,2.773,11.386,6.582,2.386,3.808-1.925,9.218-6.142,7.5-2.92-1.707-5.819-3.454-8.78-5.107-3.956-1.12-8.864.619-11.733-3.066-.742.094-2.239.272-2.983.355-2.04,1.633-4.8,3.36-7.367,1.674-3.338-1.662-3.159-5.9-1.349-8.643.251-2.145.167-4.794,2.428-5.892,2.438-1.192,3.411-3.662,4.615-5.912a17.189,17.189,0,0,1,3.6-1.161A5.639,5.639,0,0,1,77.8,27.939" transform="translate(-50.195 -14.987)" fill="#fff"/>
      <path id="Pfad_193" data-name="Pfad 193" d="M66.756,69.263c-.66,5.147-1.423,10.287-2.218,15.414,1.558.042,3.118.033,4.688-.052C70.472,76.2,71.5,67.745,73.16,59.4c.265-1.233.55-2.468.892-3.686l-5.127-.294c-1.149,4.517-1.528,9.245-2.169,13.848" transform="translate(-47.264 -0.807)" fill="#fff"/>
      <path id="Pfad_194" data-name="Pfad 194" d="M99.7,73.64c-2.177,3.39-2.145,7.734-3.213,11.553q2.654-.016,5.306,0c.407-2.239.815-4.468,1.255-6.686,5.515-.544,12.851,1.851,16.755-3.275,1.853-4.092,2.229-8.821,2.071-13.27a12.8,12.8,0,0,0,.335-3.559q-2.616-.127-5.283-.266c0,.054.007.11.009.164-2.92,1.475-2.26,4.5-.1,6.352-.88,2.7.167,6.52-2.241,8.435-4.917.816-9.962-.189-14.891.555M55.881,85.192H61.29c1.341-8.9,5.672-17.915,3.026-26.967-.306-1.167-.681-2.311-1.091-3.443-2-.14-3.909-.275-5.709-.4.4.94.782,1.879,1.149,2.822,3.747,9.261-1.412,18.774-2.783,27.992" transform="translate(-51.478 -1.311)" fill="#fff"/>
      <path id="Pfad_195" data-name="Pfad 195" d="M61.889,46.177c2.376-.335,4.731-.763,7.064-1.328,5.222,2.25,11.459,1.172,16.294,4.248-2.5,1.665-5.986,2.3-7.43,5.211a32.381,32.381,0,0,0-3.161,9.357c-1.664,8.35-2.69,16.806-3.936,25.23-1.569.083-3.128.094-4.688.052.8-5.128,1.56-10.267,2.218-15.414.943-6.761,1.277-13.8,4.4-20.031a10.659,10.659,0,0,1-10.759-7.326" transform="translate(-48.554 -5.95)" fill="#fff"/>
    </g>
  </g>
</svg>
