<svg xmlns="http://www.w3.org/2000/svg" width="229.48" height="229.48" viewBox="0 0 229.48 229.48">
  <g id="Gruppe_264" data-name="Gruppe 264" transform="translate(-1085.52 -1904.014)">
    <g id="Rechteck_39" data-name="Rechteck 39" transform="translate(1095.52 1914.014)" fill="#985f1b" stroke="#fff" stroke-width="10">
      <rect width="209.48" height="209.48" stroke="none"/>
      <rect x="-5" y="-5" width="219.48" height="219.48" fill="none"/>
    </g>
    <g id="Gruppe_231" data-name="Gruppe 231" transform="translate(0 -564.007)">
      <g id="Gruppe_226" data-name="Gruppe 226" transform="translate(1161.542 2517.604)">
        <path id="Pfad_187" data-name="Pfad 187" d="M1444.594,93.739l2.688,10.589,9.133,6.454c2.933,2.287,6.188,2.03,8.821-.6l.929-.926-10.192-9.88s-1.53-7.391-2.148-9.517-2.476-6.117-6.6-7.081-7.063-.269-8.543,3.312l-9.488,23.061m-9.926,8.82h18.438v23.967m0-7.374h30.113m0,0,8.6,7.374h12.906c5.531,0,7.376-7.374,7.376-7.374l-16.594-1.844s-3.88-5.033-5.469-7.405-3.749-5.5-9.663-5.5h-27.271" transform="translate(-1419.269 -66.002)" fill="none" stroke="#fff" stroke-linecap="round" stroke-linejoin="round" stroke-width="3"/>
        <path id="Pfad_188" data-name="Pfad 188" d="M1471.684,108.748a6.176,6.176,0,1,1-6.174-6.176A6.173,6.173,0,0,1,1471.684,108.748Z" transform="translate(-1397.292 -54.93)" fill="none" stroke="#fff" stroke-linecap="round" stroke-linejoin="round" stroke-width="3"/>
        <path id="Pfad_189" data-name="Pfad 189" d="M1451.444,77.982a6.176,6.176,0,1,1-6.174-6.176A6.174,6.174,0,0,1,1451.444,77.982Z" transform="translate(-1408.395 -71.806)" fill="none" stroke="#fff" stroke-linecap="round" stroke-linejoin="round" stroke-width="3"/>
      </g>
    </g>
    <text id="Heilmassagen_Komplexe_Entstauungstherapie" data-name="Heilmassagen/
Komplexe
Entstauungstherapie" transform="translate(1200 2054.993)" fill="#fff" font-size="16" font-family="Avenir-Heavy, Avenir" font-weight="800"><tspan x="-54.672" y="0">Heilmassagen/</tspan><tspan x="-37.92" y="20">Komplexe</tspan><tspan x="-77.344" y="40">Entstauungstherapie</tspan></text>
  </g>
</svg>
