<svg xmlns="http://www.w3.org/2000/svg" xmlns:xlink="http://www.w3.org/1999/xlink" width="192.73" height="56.697" viewBox="0 0 192.73 56.697">
  <defs>
    <clipPath id="clip-path">
      <path id="Pfad_5" data-name="Pfad 5" d="M0,0H192.73V-56.7H0Z" fill="none"/>
    </clipPath>
  </defs>
  <g id="Gruppe_115" data-name="Gruppe 115" transform="translate(0 56.697)">
    <g id="Gruppe_5" data-name="Gruppe 5" clip-path="url(#clip-path)">
      <g id="Gruppe_1" data-name="Gruppe 1" transform="translate(25.464 -8.804)">
        <path id="Pfad_1" data-name="Pfad 1" d="M0,0H-2.143l-.368.941H-3.572L-1.535-4h.927L1.429.941H.368ZM-.325-.884l-.5-1.238c-.028-.071-.056-.149-.084-.227s-.05-.155-.071-.226-.043-.127-.057-.169l-.021-.071h-.007l-.021.063c-.015.043-.036.1-.057.17s-.042.142-.07.219-.057.156-.086.227L-1.789-.884Z" fill="#595b60"/>
      </g>
      <g id="Gruppe_2" data-name="Gruppe 2" transform="translate(32.222 -12.822)">
        <path id="Pfad_2" data-name="Pfad 2" d="M0,0-.035,4.951H-1V3.409c0-.261,0-.5.007-.714s.015-.4.015-.552-.007-.276,0-.36l.007-.128H-.983l-.057.1c-.035.064-.078.142-.127.227l-.149.254c-.049.085-.085.142-.106.177l-.771,1.33H-2.7l-.771-1.33c-.021-.035-.057-.092-.106-.177s-.1-.17-.149-.254-.092-.163-.127-.227l-.057-.1h-.007l.007.128c.008.084.008.2.014.36s.015.34.022.552.007.446.007.707V4.951h-.969V0h.926l1.026,1.7c.092.155.17.283.226.382s.106.177.142.233.056.1.071.12l.02.036h.008l.021-.036c.014-.021.035-.063.07-.12s.086-.134.142-.233.134-.227.227-.382L-.927,0Z" fill="#595b60"/>
      </g>
      <g id="Gruppe_3" data-name="Gruppe 3" transform="translate(35.316 -12.801)">
        <path id="Pfad_3" data-name="Pfad 3" d="M0,0-.021.021a1.818,1.818,0,0,1,.6.1,1.489,1.489,0,0,1,.473.269,1.115,1.115,0,0,1,.3.4,1.207,1.207,0,0,1,.107.5.914.914,0,0,1-.064.34,1.276,1.276,0,0,1-.156.29,1.26,1.26,0,0,1-.212.219.634.634,0,0,1-.247.127v.008a1.171,1.171,0,0,1,.353.148,1.409,1.409,0,0,1,.311.269,1.333,1.333,0,0,1,.22.361,1.045,1.045,0,0,1,.084.41,1.588,1.588,0,0,1-.106.58,1.255,1.255,0,0,1-.318.474,1.49,1.49,0,0,1-.537.318,2.292,2.292,0,0,1-.764.106h-2.08V0ZM-.07,4.1l.007.014A.817.817,0,0,0,.5,3.919a.652.652,0,0,0,.213-.51A.638.638,0,0,0,.488,2.9a.843.843,0,0,0-.566-.191h-1V4.1ZM-.2,1.966v.008A.712.712,0,0,0,.3,1.8a.529.529,0,0,0,.191-.411A.5.5,0,0,0,.3.99.743.743,0,0,0-.2.828h-.87V1.966Z" fill="#595b60"/>
      </g>
      <g id="Gruppe_4" data-name="Gruppe 4" transform="translate(41.925 -12.822)">
        <path id="Pfad_4" data-name="Pfad 4" d="M0,0-.007,2.808a2.866,2.866,0,0,1-.149.962,1.905,1.905,0,0,1-.424.707,1.789,1.789,0,0,1-.672.432,2.665,2.665,0,0,1-.884.141,2.661,2.661,0,0,1-.884-.141,1.8,1.8,0,0,1-.673-.432,1.917,1.917,0,0,1-.423-.707A2.935,2.935,0,0,1-4.265,2.8V0h.983V2.787a1.52,1.52,0,0,0,.29,1.018,1.083,1.083,0,0,0,.863.326,1.062,1.062,0,0,0,.849-.326A1.52,1.52,0,0,0-.99,2.787V0Z" fill="#595b60"/>
      </g>
    </g>
    <g id="Gruppe_6" data-name="Gruppe 6" transform="translate(46.286 -8.79)">
      <path id="Pfad_6" data-name="Pfad 6" d="M0,0V.92H-3.431V-4.032h.983V0Z" fill="#595b60"/>
    </g>
    <g id="Gruppe_9" data-name="Gruppe 9" clip-path="url(#clip-path)">
      <g id="Gruppe_7" data-name="Gruppe 7" transform="translate(49.888 -8.804)">
        <path id="Pfad_7" data-name="Pfad 7" d="M0,0H-2.143l-.368.941H-3.572L-1.535-4h.927L1.429.941H.368ZM-.325-.884l-.5-1.238c-.029-.071-.057-.149-.085-.227s-.05-.155-.071-.226-.042-.127-.057-.169l-.021-.071h-.007l-.021.063c-.014.043-.035.1-.057.17s-.042.142-.07.219-.057.156-.085.227L-1.79-.884Z" fill="#595b60"/>
      </g>
      <g id="Gruppe_8" data-name="Gruppe 8" transform="translate(56.137 -12.822)">
        <path id="Pfad_8" data-name="Pfad 8" d="M0,0-.014,4.951H-.941l-1.408-1.9q-.169-.223-.339-.467c-.114-.163-.219-.311-.318-.446s-.184-.248-.241-.332l-.092-.135h-.007V4.951h-.983V.007H-3.4l1.436,1.931c.085.113.184.248.3.4s.22.29.319.432.183.261.254.36l.106.142h.008V0Z" fill="#595b60"/>
      </g>
    </g>
    <g id="Gruppe_10" data-name="Gruppe 10" transform="translate(60.765 -12.822)">
      <path id="Pfad_10" data-name="Pfad 10" d="M0,0V.919H-1.556V4.951h-.983V.919H-4.081V0Z" fill="#595b60"/>
    </g>
    <g id="Gruppe_12" data-name="Gruppe 12" clip-path="url(#clip-path)">
      <g id="Gruppe_11" data-name="Gruppe 11" transform="translate(86.556 -11.125)">
        <path id="Pfad_11" data-name="Pfad 11" d="M0,0C-.092.156-.17.283-.226.382S-.333.559-.368.615s-.056.1-.071.121L-.46.771H-.467L-.488.736C-.5.714-.523.672-.559.615S-.644.481-.7.382-.835.156-.927,0l-.766-1.269Q-2.329.168-2.879,1.48V3.254h.969V1.705c0-.262,0-.5-.007-.707S-1.931.6-1.939.446-1.946.17-1.952.085l-.007-.127h.007l.056.1c.036.063.078.141.127.226l.149.255c.049.085.085.141.106.176l.771,1.33h.509L.537.714C.559.679.594.623.643.538L.792.283C.841.2.884.12.919.057l.057-.1H.983L.976.085c-.007.085,0,.2,0,.361S.969.785.962,1s-.008.452-.008.714V3.254h.97L1.959-1.7H1.033Z" fill="#595b60"/>
      </g>
    </g>
    <g id="Gruppe_13" data-name="Gruppe 13" transform="translate(93.081 -8.79)">
      <path id="Pfad_13" data-name="Pfad 13" d="M0,0V.92H-3.544V-4.032h3.5v.92H-2.561v1.054H-.573V-1.2H-2.561V0Z" fill="#595b60"/>
    </g>
    <g id="Gruppe_15" data-name="Gruppe 15" clip-path="url(#clip-path)">
      <g id="Gruppe_14" data-name="Gruppe 14" transform="translate(96.117 -12.822)">
        <path id="Pfad_14" data-name="Pfad 14" d="M0,0-.007.014a2.752,2.752,0,0,1,1,.177A2.471,2.471,0,0,1,1.8.7a2.4,2.4,0,0,1,.552.785A2.506,2.506,0,0,1,2.561,2.5a2.452,2.452,0,0,1-.2,1,2.355,2.355,0,0,1-.545.772,2.483,2.483,0,0,1-.806.495,2.751,2.751,0,0,1-1,.176h-2.15V0ZM.029,4.032H.014A1.643,1.643,0,0,0,.6,3.926a1.568,1.568,0,0,0,.489-.3,1.421,1.421,0,0,0,.339-.481A1.6,1.6,0,0,0,1.556,2.5a1.6,1.6,0,0,0-.127-.651,1.658,1.658,0,0,0-.339-.5A1.383,1.383,0,0,0,.6,1.026,1.622,1.622,0,0,0,.014.919H-1.139V4.032Z" fill="#595b60"/>
      </g>
    </g>
    <path id="Pfad_16" data-name="Pfad 16" d="M99.4-7.87h.983v-4.952H99.4Z" fill="#595b60"/>
    <g id="Gruppe_17" data-name="Gruppe 17" clip-path="url(#clip-path)">
      <g id="Gruppe_16" data-name="Gruppe 16" transform="translate(105.374 -11.903)">
        <path id="Pfad_17" data-name="Pfad 17" d="M0,0-2.391,2.7c-.106.12-.2.226-.29.319a1.025,1.025,0,0,0-.127.148l.007.007c.007,0,.077-.007.212-.014s.3-.014.509-.014H-.007V4.06H-4.145V3.148L-1.691.439c.043-.05.092-.1.142-.149s.1-.092.141-.134S-1.33.078-1.3.05l.05-.043L-1.259,0H-4.067V-.919H0Z" fill="#595b60"/>
      </g>
    </g>
    <path id="Pfad_19" data-name="Pfad 19" d="M106.232-7.87h.983v-4.952h-.983Z" fill="#595b60"/>
    <g id="Gruppe_19" data-name="Gruppe 19" clip-path="url(#clip-path)">
      <g id="Gruppe_18" data-name="Gruppe 18" transform="translate(112.55 -12.822)">
        <path id="Pfad_20" data-name="Pfad 20" d="M0,0-.014,4.951H-.941l-1.408-1.9q-.169-.223-.339-.467c-.114-.163-.219-.311-.318-.446s-.184-.248-.241-.332l-.092-.135h-.007V4.951h-.983V.007H-3.4l1.436,1.931c.085.113.184.248.3.4s.22.29.319.432l.254.36.106.142h.008V0Z" fill="#595b60"/>
      </g>
    </g>
    <path id="Pfad_22" data-name="Pfad 22" d="M113.571-7.87h.984v-4.952h-.984Z" fill="#595b60"/>
    <g id="Gruppe_22" data-name="Gruppe 22" clip-path="url(#clip-path)">
      <g id="Gruppe_20" data-name="Gruppe 20" transform="translate(118.079 -11.316)">
        <path id="Pfad_23" data-name="Pfad 23" d="M0,0H-.056A.94.94,0,0,0-.2-.318,1.027,1.027,0,0,0-.424-.552a.86.86,0,0,0-.29-.141,1.256,1.256,0,0,0-.319-.043.885.885,0,0,0-.538.149.436.436,0,0,0-.2.368.366.366,0,0,0,.1.254.841.841,0,0,0,.261.191,3.323,3.323,0,0,0,.382.156L-.58.53A4.844,4.844,0,0,1-.036.75a2.354,2.354,0,0,1,.5.3,1.5,1.5,0,0,1,.361.425,1.151,1.151,0,0,1,.141.572,1.346,1.346,0,0,1-.134.609,1.475,1.475,0,0,1-.382.473,1.693,1.693,0,0,1-.6.312,2.432,2.432,0,0,1-.77.113,2.052,2.052,0,0,1-1.3-.4,2.079,2.079,0,0,1-.722-1.083l.948-.254a1.186,1.186,0,0,0,.135.325,1.092,1.092,0,0,0,.233.276,1.161,1.161,0,0,0,.333.191,1.147,1.147,0,0,0,.424.071.93.93,0,0,0,.608-.17A.531.531,0,0,0-.05,2.1a.446.446,0,0,0-.113-.318,1.032,1.032,0,0,0-.3-.22A2.861,2.861,0,0,0-.9,1.393c-.163-.049-.333-.106-.509-.169-.149-.05-.3-.114-.453-.184A1.876,1.876,0,0,1-2.292.778,1.4,1.4,0,0,1-2.61.4a1.093,1.093,0,0,1-.127-.551A1.128,1.128,0,0,1-2.6-.7a1.549,1.549,0,0,1,.382-.46,1.893,1.893,0,0,1,.573-.318,2.138,2.138,0,0,1,.721-.113,2.227,2.227,0,0,1,.658.1,1.856,1.856,0,0,1,.552.276A1.827,1.827,0,0,1,.7-.792a1.659,1.659,0,0,1,.248.53Z" fill="#595b60"/>
      </g>
      <g id="Gruppe_21" data-name="Gruppe 21" transform="translate(123.216 -11.351)">
        <path id="Pfad_24" data-name="Pfad 24" d="M0,0-.021.028A1.367,1.367,0,0,0-.559-.41a1.642,1.642,0,0,0-.707-.163,1.683,1.683,0,0,0-.636.12,1.389,1.389,0,0,0-.489.333A1.436,1.436,0,0,0-2.7.389a1.883,1.883,0,0,0-.106.644,1.784,1.784,0,0,0,.12.658,1.454,1.454,0,0,0,.319.5,1.469,1.469,0,0,0,.487.318,1.617,1.617,0,0,0,.616.113,1.588,1.588,0,0,0,.785-.205,1.352,1.352,0,0,0,.545-.53l.99.261a2.589,2.589,0,0,1-.389.595,2.493,2.493,0,0,1-.53.452,2.313,2.313,0,0,1-.651.29,2.542,2.542,0,0,1-.743.106,2.725,2.725,0,0,1-1-.184,2.529,2.529,0,0,1-.814-.53,2.484,2.484,0,0,1-.552-.821,2.646,2.646,0,0,1-.2-1.039,2.637,2.637,0,0,1,.206-1.04,2.466,2.466,0,0,1,.551-.821,2.571,2.571,0,0,1,.821-.53,2.6,2.6,0,0,1,1-.191,2.58,2.58,0,0,1,.708.092,2.553,2.553,0,0,1,.622.261A2.438,2.438,0,0,1,.608-.8,2.48,2.48,0,0,1,1-.262Z" fill="#595b60"/>
      </g>
    </g>
    <g id="Gruppe_23" data-name="Gruppe 23" transform="translate(129.026 -12.822)">
      <path id="Pfad_26" data-name="Pfad 26" d="M0,0V4.951H-.983V2.907H-3.127V4.951H-4.11V0h.983V1.981H-.983V0Z" fill="#595b60"/>
    </g>
    <g id="Gruppe_24" data-name="Gruppe 24" transform="translate(133.592 -8.79)">
      <path id="Pfad_27" data-name="Pfad 27" d="M0,0V.92H-3.544V-4.032h3.5v.92H-2.561v1.054H-.573V-1.2H-2.561V0Z" fill="#595b60"/>
    </g>
    <g id="Gruppe_26" data-name="Gruppe 26" clip-path="url(#clip-path)">
      <g id="Gruppe_25" data-name="Gruppe 25" transform="translate(138.886 -7.864)">
        <path id="Pfad_28" data-name="Pfad 28" d="M0,0-.976-1.683h-.807V0h-.983V-4.945h1.733a2.676,2.676,0,0,1,.821.114A1.646,1.646,0,0,1,.4-4.492a1.6,1.6,0,0,1,.382.531,1.637,1.637,0,0,1,.135.679,1.514,1.514,0,0,1-.241.87,1.481,1.481,0,0,1-.7.545L1.1,0ZM-1.783-2.575l.871.014a.908.908,0,0,0,.353-.063.71.71,0,0,0,.248-.17.835.835,0,0,0,.148-.233A.687.687,0,0,0-.113-3.3a.7.7,0,0,0-.05-.276.826.826,0,0,0-.148-.234.708.708,0,0,0-.248-.169A.855.855,0,0,0-.9-4.039h-.878Z" fill="#595b60"/>
      </g>
    </g>
    <g id="Gruppe_27" data-name="Gruppe 27" transform="translate(144.222 -8.79)">
      <path id="Pfad_30" data-name="Pfad 30" d="M0,0V.92H-3.544V-4.032h3.5v.92H-2.561v1.054H-.573V-1.2H-2.561V0Z" fill="#595b60"/>
    </g>
    <g id="Gruppe_28" data-name="Gruppe 28" transform="translate(149.247 -12.822)">
      <path id="Pfad_31" data-name="Pfad 31" d="M0,0V4.951H-.983V2.907H-3.127V4.951H-4.11V0h.983V1.981H-.983V0Z" fill="#595b60"/>
    </g>
    <g id="Gruppe_31" data-name="Gruppe 31" clip-path="url(#clip-path)">
      <g id="Gruppe_29" data-name="Gruppe 29" transform="translate(153.281 -8.804)">
        <path id="Pfad_32" data-name="Pfad 32" d="M0,0H-2.143l-.368.941H-3.572L-1.535-4h.927L1.429.941H.368ZM-.325-.884l-.5-1.238c-.028-.071-.056-.149-.084-.227s-.05-.155-.071-.226-.043-.127-.057-.169l-.021-.071h-.007l-.021.063c-.015.043-.036.1-.057.17s-.042.142-.07.219-.057.156-.086.227L-1.789-.884Z" fill="#595b60"/>
      </g>
      <g id="Gruppe_30" data-name="Gruppe 30" transform="translate(157.259 -12.801)">
        <path id="Pfad_33" data-name="Pfad 33" d="M0,0-.021.021a1.808,1.808,0,0,1,.6.1,1.483,1.483,0,0,1,.474.269,1.138,1.138,0,0,1,.3.4,1.206,1.206,0,0,1,.106.5.913.913,0,0,1-.063.34,1.276,1.276,0,0,1-.156.29,1.3,1.3,0,0,1-.212.219.631.631,0,0,1-.248.127v.008a1.166,1.166,0,0,1,.354.148,1.409,1.409,0,0,1,.311.269,1.333,1.333,0,0,1,.22.361,1.045,1.045,0,0,1,.084.41,1.588,1.588,0,0,1-.106.58,1.255,1.255,0,0,1-.318.474,1.507,1.507,0,0,1-.537.318,2.3,2.3,0,0,1-.765.106H-2.051V0ZM-.071,4.1l.008.014A.817.817,0,0,0,.5,3.919a.652.652,0,0,0,.213-.51A.641.641,0,0,0,.488,2.9a.843.843,0,0,0-.566-.191h-1V4.1ZM-.2,1.966v.008A.714.714,0,0,0,.3,1.8a.526.526,0,0,0,.191-.411A.5.5,0,0,0,.3.99.744.744,0,0,0-.2.828h-.87V1.966Z" fill="#595b60"/>
      </g>
    </g>
    <path id="Pfad_35" data-name="Pfad 35" d="M159.688-7.87h.984v-4.952h-.984Z" fill="#595b60"/>
    <g id="Gruppe_32" data-name="Gruppe 32" transform="translate(165.122 -8.79)">
      <path id="Pfad_36" data-name="Pfad 36" d="M0,0V.92H-3.431V-4.032h.983V0Z" fill="#595b60"/>
    </g>
    <path id="Pfad_37" data-name="Pfad 37" d="M165.7-7.87h.984v-4.952H165.7Z" fill="#595b60"/>
    <g id="Gruppe_33" data-name="Gruppe 33" transform="translate(171.293 -12.822)">
      <path id="Pfad_38" data-name="Pfad 38" d="M0,0V.919H-1.556V4.951h-.983V.919H-4.081V0Z" fill="#595b60"/>
    </g>
    <g id="Gruppe_35" data-name="Gruppe 35" clip-path="url(#clip-path)">
      <g id="Gruppe_34" data-name="Gruppe 34" transform="translate(174.839 -8.804)">
        <path id="Pfad_39" data-name="Pfad 39" d="M0,0H-2.143l-.368.941H-3.572L-1.535-4h.927L1.429.941H.368ZM-.325-.884l-.5-1.238c-.028-.071-.056-.149-.084-.227s-.05-.155-.071-.226-.043-.127-.056-.169l-.022-.071h-.007l-.021.063c-.015.043-.036.1-.057.17s-.042.142-.07.219-.057.156-.086.227L-1.789-.884Z" fill="#595b60"/>
      </g>
    </g>
    <g id="Gruppe_36" data-name="Gruppe 36" transform="translate(180.352 -12.822)">
      <path id="Pfad_41" data-name="Pfad 41" d="M0,0V.919H-1.556V4.951h-.983V.919H-4.081V0Z" fill="#595b60"/>
    </g>
    <path id="Pfad_42" data-name="Pfad 42" d="M180.885-7.87h.983v-4.952h-.983Z" fill="#595b60"/>
    <g id="Gruppe_46" data-name="Gruppe 46" clip-path="url(#clip-path)">
      <g id="Gruppe_37" data-name="Gruppe 37" transform="translate(182.541 -10.304)">
        <path id="Pfad_43" data-name="Pfad 43" d="M0,0A2.64,2.64,0,0,1,.2-1.04a2.449,2.449,0,0,1,.552-.82,2.575,2.575,0,0,1,.82-.531,2.618,2.618,0,0,1,1-.191,2.619,2.619,0,0,1,1,.191,2.575,2.575,0,0,1,.82.531,2.419,2.419,0,0,1,.552.813,2.64,2.64,0,0,1,.205,1.04,2.637,2.637,0,0,1-.2,1.04,2.419,2.419,0,0,1-.552.813,2.558,2.558,0,0,1-.82.531,2.752,2.752,0,0,1-1,.184,2.745,2.745,0,0,1-1-.184,2.521,2.521,0,0,1-.814-.531,2.464,2.464,0,0,1-.552-.82,2.651,2.651,0,0,1-.2-1.04ZM1.047-.014A1.771,1.771,0,0,0,1.16.637a1.57,1.57,0,0,0,.318.509,1.375,1.375,0,0,0,.488.325,1.623,1.623,0,0,0,.622.113,1.668,1.668,0,0,0,.631-.12,1.387,1.387,0,0,0,.487-.332A1.572,1.572,0,0,0,4.025.623a1.775,1.775,0,0,0,.113-.651,1.779,1.779,0,0,0-.113-.658A1.561,1.561,0,0,0,3.706-1.2a1.39,1.39,0,0,0-.487-.333,1.65,1.65,0,0,0-.623-.12,1.625,1.625,0,0,0-.623.113,1.388,1.388,0,0,0-.488.325,1.574,1.574,0,0,0-.318.51,1.78,1.78,0,0,0-.114.658Z" fill="#595b60"/>
      </g>
      <g id="Gruppe_38" data-name="Gruppe 38" transform="translate(192.73 -12.822)">
        <path id="Pfad_44" data-name="Pfad 44" d="M0,0-.014,4.951H-.941l-1.407-1.9q-.171-.223-.34-.467c-.113-.163-.219-.311-.318-.446s-.184-.248-.241-.332l-.092-.135h-.007V4.951h-.983V.007H-3.4l1.436,1.931c.084.113.183.248.3.4s.219.29.318.432l.254.36.107.142h.007V0Z" fill="#595b60"/>
      </g>
      <g id="Gruppe_39" data-name="Gruppe 39" transform="translate(65.735 -16.026)">
        <path id="Pfad_45" data-name="Pfad 45" d="M0,0A10.965,10.965,0,0,0,2.237.707c.82-1.475,1.7-3.027,2.625-4.627a5.2,5.2,0,0,1-3.157-.944A2.8,2.8,0,0,1,.651-7.086a2.866,2.866,0,0,1,.438-1.541A3.1,3.1,0,0,1,2.536-9.774a7.317,7.317,0,0,1,2.921-.491A7.55,7.55,0,0,1,8.365-9.8c1.813-2.949,3.735-5.927,5.7-8.762-.046-.061-.088-.125-.137-.185a8.367,8.367,0,0,0-3.8-2.572,14.979,14.979,0,0,0-4.944-.8,19.96,19.96,0,0,0-7.622,1.618l-.888.368L-.96-15.541l.784-.4A13.065,13.065,0,0,1,2.47-16.957,10.246,10.246,0,0,1,5-17.279a8.253,8.253,0,0,1,3.853.825,2.451,2.451,0,0,1,1.294,2.43v.338a10.081,10.081,0,0,0-5.362-1.449A11.655,11.655,0,0,0-.3-14.093a8.075,8.075,0,0,0-3.37,2.881A7.252,7.252,0,0,0-4.842-7.237,7.513,7.513,0,0,0-3.528-2.845,8.317,8.317,0,0,0,0,0" fill="#595b60"/>
      </g>
      <g id="Gruppe_40" data-name="Gruppe 40" transform="translate(10.791 -38.138)">
        <path id="Pfad_46" data-name="Pfad 46" d="M0,0A15.752,15.752,0,0,0-2.909.214,5.115,5.115,0,0,0-5.2,1.321q-.172.141-.34.305V.473h-5.248V22.6h5.248V10.136a5.443,5.443,0,0,1,1.088-3.65C-3.512,5.4-2.136,5.021-.192,5.454l1.077.24V0Z" fill="#595b60"/>
      </g>
      <g id="Gruppe_41" data-name="Gruppe 41" transform="translate(35.988 -25.248)">
        <path id="Pfad_47" data-name="Pfad 47" d="M0,0A16.108,16.108,0,0,0-.8-5.2,11.894,11.894,0,0,0-3.165-9.315a10.508,10.508,0,0,0-3.673-2.66,11.524,11.524,0,0,0-4.615-.915,11.7,11.7,0,0,0-4.589.883,10.521,10.521,0,0,0-3.6,2.5,11.3,11.3,0,0,0-2.307,3.72,12.242,12.242,0,0,0-.805,4.39,12.075,12.075,0,0,0,1.387,5.687,10.816,10.816,0,0,0,4.131,4.28,12.286,12.286,0,0,0,6.369,1.618,12.47,12.47,0,0,0,3.582-.508,11.824,11.824,0,0,0,3.25-1.567A15.712,15.712,0,0,0-1.108,5.476L-.5,4.788-4.557,1.473l-.561.672a8.864,8.864,0,0,1-2.7,2.246,6.65,6.65,0,0,1-3.083.736,6.939,6.939,0,0,1-3.071-.677A5.875,5.875,0,0,1-16.2,2.587a6.008,6.008,0,0,1-.846-1.7H0ZM-17.057-3.8a6.565,6.565,0,0,1,.64-1.466,5.078,5.078,0,0,1,1.909-1.846,5.961,5.961,0,0,1,3.018-.723,6.151,6.151,0,0,1,2.821.641A5.288,5.288,0,0,1-6.645-5.41,5.4,5.4,0,0,1-5.9-3.8Z" fill="#595b60"/>
      </g>
      <g id="Gruppe_42" data-name="Gruppe 42" transform="translate(56.763 -34.384)">
        <path id="Pfad_48" data-name="Pfad 48" d="M0,0A7.366,7.366,0,0,0-3.22-2.871a10.084,10.084,0,0,0-4.224-.883,8.2,8.2,0,0,0-3.662.829,6.562,6.562,0,0,0-1.068.656V-12.658h-5.248V18.849h5.248V6.508a6.973,6.973,0,0,1,.552-2.928,3.732,3.732,0,0,1,1.453-1.695A4.41,4.41,0,0,1-7.841,1.3a3.226,3.226,0,0,1,2.836,1.21,6.059,6.059,0,0,1,.968,3.6V18.849H1.211V4.806A8.963,8.963,0,0,0,0,0" fill="#595b60"/>
      </g>
      <g id="Gruppe_43" data-name="Gruppe 43" transform="translate(133.398 -33.908)">
        <path id="Pfad_49" data-name="Pfad 49" d="M0,0V-3.049a13.9,13.9,0,0,0-2.39.191A3.966,3.966,0,0,0-4.159-2,7.444,7.444,0,0,0-5.8.145L-5.883.3h-.545V-2.578H-9.317V17.194h2.889V5.906A6.564,6.564,0,0,1-5.051,1.482,5.044,5.044,0,0,1,0,0" fill="#595b60"/>
      </g>
      <g id="Gruppe_44" data-name="Gruppe 44" transform="translate(149.081 -18.947)">
        <path id="Pfad_50" data-name="Pfad 50" d="M0,0,.085-.151H.628V2.233H3.517V-17.538H.628V-6.364A6.9,6.9,0,0,1-.836-1.675,5.157,5.157,0,0,1-4.9.006,4.339,4.339,0,0,1-8.69-1.708,7.273,7.273,0,0,1-9.869-5.986V-17.538h-2.889V-4.675A7.821,7.821,0,0,0-11.725-.492,6.172,6.172,0,0,0-9.013,1.929a8.961,8.961,0,0,0,3.739.777,7.184,7.184,0,0,0,2.122-.325,6.06,6.06,0,0,0,1.881-.959A4.67,4.67,0,0,0,0,0" fill="#595b60"/>
      </g>
      <g id="Gruppe_45" data-name="Gruppe 45" transform="translate(171.342 -20.849)">
        <path id="Pfad_51" data-name="Pfad 51" d="M0,0A6.725,6.725,0,0,1-4.467,1.908a7.564,7.564,0,0,1-2.892-.552A6.884,6.884,0,0,1-9.689-.217a7.162,7.162,0,0,1-1.529-2.417,8.134,8.134,0,0,1-.539-2.946,8.918,8.918,0,0,1,.951-4.227,6.545,6.545,0,0,1,2.565-2.7,6.917,6.917,0,0,1,3.434-.9,6.8,6.8,0,0,1,4.664,1.89l1.969-2.333A10.614,10.614,0,0,0,.291-14.83a11.385,11.385,0,0,0-2.377-.93,10.552,10.552,0,0,0-2.759-.349,9.626,9.626,0,0,0-3.917.816,10.072,10.072,0,0,0-3.206,2.232A10.514,10.514,0,0,0-14.11-9.732a10.559,10.559,0,0,0-.782,4.01,11.1,11.1,0,0,0,.7,3.886,10.124,10.124,0,0,0,2.067,3.353A9.551,9.551,0,0,0-8.906,3.8a10.011,10.011,0,0,0,4.023.808,10.2,10.2,0,0,0,3.721-.685A8.6,8.6,0,0,0,1.7,2.1Z" fill="#595b60"/>
      </g>
    </g>
    <g id="Gruppe_47" data-name="Gruppe 47" transform="translate(176.557 -45.862)">
      <path id="Pfad_53" data-name="Pfad 53" d="M0,0V29.148H2.889V18.733l8.825,10.415h4.1L6.544,18.464l9.014-9.087H11.817l-8.928,9.3V0Z" fill="#595b60"/>
    </g>
    <g id="Gruppe_48" data-name="Gruppe 48" transform="translate(136.493 -39.774)">
      <path id="Pfad_54" data-name="Pfad 54" d="M0,0H0Z" fill="#42454a"/>
    </g>
    <g id="Gruppe_56" data-name="Gruppe 56" clip-path="url(#clip-path)">
      <g id="Gruppe_49" data-name="Gruppe 49" transform="translate(77.113 -15.258)">
        <path id="Pfad_55" data-name="Pfad 55" d="M0,0C2.159-4.489,7.11-13.051,8.977-16.029A90.812,90.812,0,0,1,19.82-30.283a45.516,45.516,0,0,1,6.617-5.964,27.425,27.425,0,0,1,10.625-5.192,33.086,33.086,0,0,0-3.875.511c-.242.073-8.89,1.082-19.914,12.546C.986-15.6-13.3,13.515-13.3,13.515l6.628,1.6c.4-1.024,1.293-3.278,2.337-5.726C-2.433,4.927-.024.049,0,0" fill="#32beeb"/>
      </g>
      <g id="Gruppe_50" data-name="Gruppe 50" transform="translate(71.334)">
        <path id="Pfad_56" data-name="Pfad 56" d="M0,0,.031-.006.285-.722C.178-.452.079-.2,0,0" fill="#32beeb"/>
      </g>
      <g id="Gruppe_51" data-name="Gruppe 51" transform="translate(77.908 -14.87)">
        <path id="Pfad_57" data-name="Pfad 57" d="M0,0C-.019.038-1.3,2.642-2.733,5.771-1.6,3.352-.114.3,1.822-3.549,1.119-2.234.486-1.011,0,0" fill="#32beeb"/>
      </g>
      <g id="Gruppe_52" data-name="Gruppe 52" transform="translate(128.668 -47.48)">
        <path id="Pfad_58" data-name="Pfad 58" d="M0,0C-2.482-2.684-6.567-5.905-11.529-5.627a15.169,15.169,0,0,0-2.344.31c.371.037.86.088,1.578.15C-8.153-4.8-5.312-1.873-4.2-.761a27.9,27.9,0,0,1,4.6,6.523h3.83A35.535,35.535,0,0,0,0,0" fill="#32beeb"/>
      </g>
      <g id="Gruppe_53" data-name="Gruppe 53" transform="translate(129.317 -48.081)">
        <path id="Pfad_59" data-name="Pfad 59" d="M0,0A37.239,37.239,0,0,1,4.606,6.363H8.033C2.618-2.7-4.745-8.087-11.828-8.087c-.151,0-.3,0-.455.008-9.144.3-20.431,9.773-30.194,25.343-1.859,2.964-6.784,11.481-8.932,15.947-.026.052-2.425,4.909-4.317,9.346-.982,2.3-1.831,4.437-2.257,5.524l6.322-1.274c.795-2.423,7.4-21.856,19.677-38.114C-26,.776-20.99-3.635-16.207-5.188a15.31,15.31,0,0,1,3.978-.722C-6.92-6.209-2.608-2.82,0,0" fill="#2d9e45"/>
      </g>
      <g id="Gruppe_54" data-name="Gruppe 54" transform="translate(62.296 -8.79)">
        <path id="Pfad_60" data-name="Pfad 60" d="M0,0V-1.2H1.988v-.863H0V-3.112H2.518v-.92h-3.5V.92H1.661Q1.893.475,2.143,0Z" fill="#595b60"/>
      </g>
      <g id="Gruppe_55" data-name="Gruppe 55" transform="translate(98.369 -36.325)">
        <path id="Pfad_61" data-name="Pfad 61" d="M0,0V19.611H2.889V16.492h.524l.088.126a7.9,7.9,0,0,0,2.981,2.538,9.5,9.5,0,0,0,4.283.928A10.366,10.366,0,0,0,19.7,14.963,10.567,10.567,0,0,0,21.133,9.49a9.9,9.9,0,0,0-.808-3.949,10.132,10.132,0,0,0-2.2-3.243A10.339,10.339,0,0,0,14.848.148,10.243,10.243,0,0,0,6.645.3,7.575,7.575,0,0,0,3.5,2.924l-.088.13H2.889V-3.779C2.3-3.043,1.7-2.276,1.082-1.462Q.533-.736,0,0M3.912,5.867A7.733,7.733,0,0,1,6.643,3.093a7.057,7.057,0,0,1,3.668-1.026,7.889,7.889,0,0,1,3.21.631,7.324,7.324,0,0,1,2.433,1.716,7.623,7.623,0,0,1,1.524,2.432A7.468,7.468,0,0,1,18,9.536a8.009,8.009,0,0,1-1.062,4.145A7.333,7.333,0,0,1,14.12,16.43a7.637,7.637,0,0,1-3.695.954,7.258,7.258,0,0,1-3.782-1.026,7.683,7.683,0,0,1-2.732-2.794A7.584,7.584,0,0,1,2.889,9.726,7.551,7.551,0,0,1,3.912,5.867" fill="#595b60"/>
      </g>
    </g>
  </g>
</svg>
