<svg xmlns="http://www.w3.org/2000/svg" xmlns:xlink="http://www.w3.org/1999/xlink" width="232.67" height="56.697" viewBox="0 0 232.67 56.697">
  <defs>
    <clipPath id="clip-path">
      <path id="Pfad_67" data-name="Pfad 67" d="M0,0H232.67V-56.7H0Z" fill="none"/>
    </clipPath>
  </defs>
  <g id="Gruppe_117" data-name="Gruppe 117" transform="translate(0 56.697)">
    <g id="Gruppe_62" data-name="Gruppe 62" clip-path="url(#clip-path)">
      <g id="Gruppe_58" data-name="Gruppe 58" transform="translate(22.558 -31.141)">
        <path id="Pfad_63" data-name="Pfad 63" d="M0,0H0A11.3,11.3,0,0,0-2.459-3.613,11.461,11.461,0,0,0-6.1-6.007a11.282,11.282,0,0,0-4.361-.871,11.24,11.24,0,0,0-4.782,1.046,9.272,9.272,0,0,0-2.076,1.314V-6.405h-5.241V24.287h5.241v-10.4a9.44,9.44,0,0,0,1.884,1.234,10.641,10.641,0,0,0,4.8,1.052,11.409,11.409,0,0,0,5.683-1.5A11.448,11.448,0,0,0-.694,10.478,11.712,11.712,0,0,0,.9,4.41,11.064,11.064,0,0,0,0,0M-4.584,4.457a6.837,6.837,0,0,1-.9,3.538h0a6.07,6.07,0,0,1-2.363,2.312,6.462,6.462,0,0,1-3.126.809,6.013,6.013,0,0,1-3.172-.857,6.527,6.527,0,0,1-2.313-2.368,6.411,6.411,0,0,1-.863-3.245,6.389,6.389,0,0,1,.861-3.261A6.557,6.557,0,0,1-14.141-.967a5.808,5.808,0,0,1,3.058-.858,6.712,6.712,0,0,1,2.73.53A6.127,6.127,0,0,1-6.312.141,6.424,6.424,0,0,1-5.025,2.194a6.273,6.273,0,0,1,.441,2.263" fill="#595b60"/>
      </g>
      <g id="Gruppe_59" data-name="Gruppe 59" transform="translate(44.398 -34.269)">
        <path id="Pfad_64" data-name="Pfad 64" d="M0,0A7.355,7.355,0,0,0-3.215-2.867,10.071,10.071,0,0,0-7.434-3.75a8.183,8.183,0,0,0-3.657.828,6.552,6.552,0,0,0-1.067.656V-12.642H-17.4V18.824h5.241V6.5a6.986,6.986,0,0,1,.551-2.924,3.726,3.726,0,0,1,1.453-1.693A4.4,4.4,0,0,1-7.83,1.3,3.221,3.221,0,0,1-5,2.511,6.067,6.067,0,0,1-4.031,6.1V18.824H1.21V4.8A8.948,8.948,0,0,0,0,0" fill="#595b60"/>
      </g>
      <g id="Gruppe_60" data-name="Gruppe 60" transform="translate(87.304 -26.063)">
        <path id="Pfad_65" data-name="Pfad 65" d="M0,0A6.747,6.747,0,0,0-3.725-2.291L-8.454-3.654c-1.417-.393-1.6-1.073-1.6-1.622a1.665,1.665,0,0,1,.3-.973,2.253,2.253,0,0,1,.949-.756,3.541,3.541,0,0,1,1.513-.313c1.759,0,2.648.821,2.881,2.663l.1.773H.6v-.884A8.135,8.135,0,0,0,.172-7.36,6.692,6.692,0,0,0-1.2-9.7a6.467,6.467,0,0,0-2.5-1.668,9.672,9.672,0,0,0-3.522-.59A8.425,8.425,0,0,0-13.09-9.979a6.587,6.587,0,0,0-2.2,5.062,5.933,5.933,0,0,0,4.743,6.1l3.542.985a6.541,6.541,0,0,1,2.432,1A1.243,1.243,0,0,1-4.117,4.2a1.862,1.862,0,0,1-.669,1.37,3.539,3.539,0,0,1-2.431.654,3.71,3.71,0,0,1-2.32-.691,2.5,2.5,0,0,1-.975-1.843L-10.6,2.9H-15.55l.029.912a7.062,7.062,0,0,0,2.387,5.308,8.916,8.916,0,0,0,6.068,1.967,9.773,9.773,0,0,0,3.931-.811A7.236,7.236,0,0,0-.058,7.8,6.672,6.672,0,0,0,1.125,3.863,6.4,6.4,0,0,0,0,0" fill="#595b60"/>
      </g>
      <g id="Gruppe_61" data-name="Gruppe 61" transform="translate(94.473 -39.763)">
        <path id="Pfad_66" data-name="Pfad 66" d="M0,0A3.184,3.184,0,0,0,2.36-.994a3.275,3.275,0,0,0,.959-2.363,3.246,3.246,0,0,0-.446-1.689A3.36,3.36,0,0,0,1.687-6.223a3.408,3.408,0,0,0-3.364-.014,3.223,3.223,0,0,0-1.2,1.2,3.306,3.306,0,0,0-.439,1.677A3.268,3.268,0,0,0-2.351-1,3.176,3.176,0,0,0,0,0" fill="#595b60"/>
      </g>
    </g>
    <path id="Pfad_68" data-name="Pfad 68" d="M91.852-15.445h5.241v-22.1H91.852Z" fill="#595b60"/>
    <g id="Gruppe_64" data-name="Gruppe 64" clip-path="url(#clip-path)">
      <g id="Gruppe_63" data-name="Gruppe 63" transform="translate(46.674 -12.815)">
        <path id="Pfad_69" data-name="Pfad 69" d="M0,0A2.52,2.52,0,0,1,.8.113a1.706,1.706,0,0,1,.592.324,1.37,1.37,0,0,1,.374.515,1.821,1.821,0,0,1,.127.7,1.825,1.825,0,0,1-.127.7,1.411,1.411,0,0,1-.374.522A1.723,1.723,0,0,1,.8,3.194a2.52,2.52,0,0,1-.8.113H-.783V4.928h-.979V0ZM-.021,2.383V2.39a1,1,0,0,0,.67-.2.69.69,0,0,0,.233-.55A.65.65,0,0,0,.642,1.1,1.044,1.044,0,0,0-.021.909H-.783V2.383Z" fill="#595b60"/>
      </g>
    </g>
    <g id="Gruppe_65" data-name="Gruppe 65" transform="translate(53.332 -12.822)">
      <path id="Pfad_71" data-name="Pfad 71" d="M0,0V4.936H-.98V2.9H-3.117V4.936H-4.1V0h.979V1.974H-.98V0Z" fill="#595b60"/>
    </g>
    <g id="Gruppe_68" data-name="Gruppe 68" clip-path="url(#clip-path)">
      <g id="Gruppe_66" data-name="Gruppe 66" transform="translate(58.637 -12.822)">
        <path id="Pfad_72" data-name="Pfad 72" d="M0,0-1.918,2.672V4.936h-.973V2.672L-4.787,0h1.1l1.016,1.417c.07.1.127.184.183.254a.547.547,0,0,0,.092.106h.007A.568.568,0,0,0-2.3,1.671c.057-.07.113-.155.184-.254L-1.107,0Z" fill="#595b60"/>
      </g>
      <g id="Gruppe_67" data-name="Gruppe 67" transform="translate(61.664 -11.321)">
        <path id="Pfad_73" data-name="Pfad 73" d="M0,0H-.057A.906.906,0,0,0-.2-.317.979.979,0,0,0-.423-.55.864.864,0,0,0-.712-.691a1.239,1.239,0,0,0-.317-.042.876.876,0,0,0-.536.148.434.434,0,0,0-.2.367.366.366,0,0,0,.1.253A.857.857,0,0,0-1.4.226a3.5,3.5,0,0,0,.381.155l.444.148A4.783,4.783,0,0,1-.035.748a2.337,2.337,0,0,1,.5.3,1.472,1.472,0,0,1,.36.423,1.137,1.137,0,0,1,.141.571,1.349,1.349,0,0,1-.134.606,1.444,1.444,0,0,1-.381.472,1.677,1.677,0,0,1-.592.311,2.43,2.43,0,0,1-.769.113,2.047,2.047,0,0,1-1.3-.395,2.074,2.074,0,0,1-.719-1.079l.945-.254a1.161,1.161,0,0,0,.133.324,1.108,1.108,0,0,0,.233.275,1.179,1.179,0,0,0,.332.191,1.167,1.167,0,0,0,.423.07A.926.926,0,0,0-.254,2.51a.532.532,0,0,0,.205-.416.452.452,0,0,0-.113-.317,1.025,1.025,0,0,0-.3-.219A2.822,2.822,0,0,0-.9,1.389c-.162-.049-.331-.106-.507-.169-.148-.05-.3-.113-.451-.183A1.873,1.873,0,0,1-2.284.776,1.381,1.381,0,0,1-2.6.4a1.092,1.092,0,0,1-.127-.55A1.12,1.12,0,0,1-2.6-.7a1.566,1.566,0,0,1,.381-.458,1.882,1.882,0,0,1,.571-.318,2.152,2.152,0,0,1,.719-.112,2.219,2.219,0,0,1,.656.1,1.854,1.854,0,0,1,.55.275A1.834,1.834,0,0,1,.7-.79a1.671,1.671,0,0,1,.247.529Z" fill="#595b60"/>
      </g>
    </g>
    <path id="Pfad_75" data-name="Pfad 75" d="M63.316-7.887h.98v-4.936h-.98Z" fill="#595b60"/>
    <g id="Gruppe_71" data-name="Gruppe 71" clip-path="url(#clip-path)">
      <g id="Gruppe_69" data-name="Gruppe 69" transform="translate(68.471 -7.887)">
        <path id="Pfad_76" data-name="Pfad 76" d="M0,0-1.629-2.214l-.55.55V0h-.98V-4.936h.98v.974c0,.4,0,.683-.007.853a1.146,1.146,0,0,0,0,.253h.007a1.82,1.82,0,0,0,.191-.19c.119-.127.3-.3.528-.536L-.106-4.936H1.1L-.966-2.862,1.163,0Z" fill="#595b60"/>
      </g>
      <g id="Gruppe_70" data-name="Gruppe 70" transform="translate(73.254 -8.817)">
        <path id="Pfad_77" data-name="Pfad 77" d="M0,0H-2.136L-2.5.938H-3.561L-1.53-3.991h.924L1.424.938H.367ZM-.324-.882l-.5-1.233c-.028-.071-.056-.148-.084-.226S-.959-2.5-.98-2.567s-.042-.126-.056-.169l-.021-.07h-.008l-.021.063c-.014.042-.035.1-.056.169s-.042.142-.071.219-.056.155-.084.226L-1.784-.882Z" fill="#595b60"/>
      </g>
    </g>
    <g id="Gruppe_72" data-name="Gruppe 72" transform="translate(78.602 -8.803)">
      <path id="Pfad_79" data-name="Pfad 79" d="M0,0V.916H-3.42V-4.019h.98V0Z" fill="#595b60"/>
    </g>
    <path id="Pfad_80" data-name="Pfad 80" d="M79.189-7.887h.98v-4.936h-.98Z" fill="#595b60"/>
    <g id="Gruppe_75" data-name="Gruppe 75" clip-path="url(#clip-path)">
      <g id="Gruppe_73" data-name="Gruppe 73" transform="translate(83.696 -11.321)">
        <path id="Pfad_81" data-name="Pfad 81" d="M0,0H-.057A.923.923,0,0,0-.2-.317,1.023,1.023,0,0,0-.423-.55a.86.86,0,0,0-.29-.141,1.226,1.226,0,0,0-.316-.042.881.881,0,0,0-.537.148.435.435,0,0,0-.2.367.37.37,0,0,0,.1.253A.857.857,0,0,0-1.4.226a3.34,3.34,0,0,0,.381.155l.444.148A4.7,4.7,0,0,1-.036.748a2.32,2.32,0,0,1,.5.3,1.472,1.472,0,0,1,.36.423,1.147,1.147,0,0,1,.141.571,1.336,1.336,0,0,1-.134.606,1.444,1.444,0,0,1-.381.472,1.685,1.685,0,0,1-.592.311,2.43,2.43,0,0,1-.769.113,2.045,2.045,0,0,1-1.3-.395,2.068,2.068,0,0,1-.719-1.079l.945-.254a1.135,1.135,0,0,0,.134.324,1.083,1.083,0,0,0,.232.275,1.173,1.173,0,0,0,.331.191,1.17,1.17,0,0,0,.423.07A.929.929,0,0,0-.254,2.51a.532.532,0,0,0,.205-.416.452.452,0,0,0-.113-.317,1.03,1.03,0,0,0-.3-.219A2.876,2.876,0,0,0-.9,1.389c-.163-.049-.332-.106-.509-.169-.147-.05-.295-.113-.451-.183A1.888,1.888,0,0,1-2.284.776,1.381,1.381,0,0,1-2.6.4a1.1,1.1,0,0,1-.127-.55A1.131,1.131,0,0,1-2.6-.7a1.566,1.566,0,0,1,.381-.458,1.871,1.871,0,0,1,.571-.318,2.152,2.152,0,0,1,.719-.112,2.219,2.219,0,0,1,.656.1,1.879,1.879,0,0,1,.55.275A1.834,1.834,0,0,1,.7-.79a1.647,1.647,0,0,1,.246.529Z" fill="#595b60"/>
      </g>
      <g id="Gruppe_74" data-name="Gruppe 74" transform="translate(88.831 -11.356)">
        <path id="Pfad_82" data-name="Pfad 82" d="M0,0-.021.028A1.389,1.389,0,0,0-.557-.409a1.638,1.638,0,0,0-.7-.162,1.659,1.659,0,0,0-.635.12,1.394,1.394,0,0,0-.487.331,1.444,1.444,0,0,0-.31.508,1.894,1.894,0,0,0-.105.641,1.769,1.769,0,0,0,.12.656,1.436,1.436,0,0,0,.317.5,1.447,1.447,0,0,0,.486.317,1.6,1.6,0,0,0,.614.113,1.586,1.586,0,0,0,.782-.2,1.357,1.357,0,0,0,.543-.529l.987.26a2.59,2.59,0,0,1-.387.593,2.508,2.508,0,0,1-.529.451,2.328,2.328,0,0,1-.649.289,2.517,2.517,0,0,1-.74.106A2.73,2.73,0,0,1-2.249,3.4a2.545,2.545,0,0,1-.812-.529,2.473,2.473,0,0,1-.549-.818,2.636,2.636,0,0,1-.2-1.037A2.637,2.637,0,0,1-3.6-.021a2.461,2.461,0,0,1,.55-.818,2.55,2.55,0,0,1,.817-.529,2.6,2.6,0,0,1,1-.19,2.558,2.558,0,0,1,.705.092,2.539,2.539,0,0,1,.62.261A2.363,2.363,0,0,1,.606-.8,2.46,2.46,0,0,1,1-.261Z" fill="#595b60"/>
      </g>
    </g>
    <g id="Gruppe_76" data-name="Gruppe 76" transform="translate(94.637 -12.822)">
      <path id="Pfad_84" data-name="Pfad 84" d="M0,0V4.936H-.98V2.9H-3.117V4.936H-4.1V0h.98V1.974H-.98V0Z" fill="#595b60"/>
    </g>
    <g id="Gruppe_77" data-name="Gruppe 77" transform="translate(99.201 -8.803)">
      <path id="Pfad_85" data-name="Pfad 85" d="M0,0V.916H-3.532V-4.019h3.49V-3.1h-2.51v1.051H-.571v.86H-2.552V0Z" fill="#595b60"/>
    </g>
    <g id="Gruppe_83" data-name="Gruppe 83" clip-path="url(#clip-path)">
      <g id="Gruppe_78" data-name="Gruppe 78" transform="translate(102.623 -11.321)">
        <path id="Pfad_86" data-name="Pfad 86" d="M0,0H-.057A.923.923,0,0,0-.2-.317,1.023,1.023,0,0,0-.423-.55.864.864,0,0,0-.712-.691a1.239,1.239,0,0,0-.317-.042.876.876,0,0,0-.536.148.434.434,0,0,0-.2.367.37.37,0,0,0,.1.253A.857.857,0,0,0-1.4.226a3.417,3.417,0,0,0,.381.155l.444.148A4.7,4.7,0,0,1-.036.748a2.32,2.32,0,0,1,.5.3,1.472,1.472,0,0,1,.36.423,1.147,1.147,0,0,1,.141.571,1.336,1.336,0,0,1-.134.606,1.444,1.444,0,0,1-.381.472,1.685,1.685,0,0,1-.592.311,2.426,2.426,0,0,1-.769.113,2.045,2.045,0,0,1-1.3-.395,2.074,2.074,0,0,1-.719-1.079l.945-.254a1.135,1.135,0,0,0,.134.324,1.083,1.083,0,0,0,.232.275,1.187,1.187,0,0,0,.331.191,1.17,1.17,0,0,0,.423.07A.927.927,0,0,0-.254,2.51a.532.532,0,0,0,.205-.416.452.452,0,0,0-.113-.317,1.03,1.03,0,0,0-.3-.219A2.835,2.835,0,0,0-.9,1.389c-.163-.049-.332-.106-.508-.169-.148-.05-.3-.113-.452-.183A1.888,1.888,0,0,1-2.284.776,1.381,1.381,0,0,1-2.6.4a1.1,1.1,0,0,1-.127-.55A1.131,1.131,0,0,1-2.6-.7a1.566,1.566,0,0,1,.381-.458,1.871,1.871,0,0,1,.571-.318,2.152,2.152,0,0,1,.719-.112,2.214,2.214,0,0,1,.656.1,1.866,1.866,0,0,1,.55.275A1.834,1.834,0,0,1,.7-.79a1.671,1.671,0,0,1,.247.529Z" fill="#595b60"/>
      </g>
      <g id="Gruppe_79" data-name="Gruppe 79" transform="translate(126.749 -8.817)">
        <path id="Pfad_87" data-name="Pfad 87" d="M0,0H-2.136L-2.5.938H-3.561L-1.53-3.991h.924L1.424.938H.367ZM-.324-.882l-.5-1.233c-.028-.071-.056-.148-.084-.226S-.959-2.5-.98-2.567s-.042-.126-.056-.169l-.021-.07h-.008l-.021.063c-.014.042-.035.1-.056.169s-.042.142-.07.219-.057.155-.085.226L-1.784-.882Z" fill="#595b60"/>
      </g>
      <g id="Gruppe_80" data-name="Gruppe 80" transform="translate(133.485 -12.822)">
        <path id="Pfad_88" data-name="Pfad 88" d="M0,0-.035,4.936H-1V3.4c0-.26,0-.5.007-.711s.014-.395.014-.55-.007-.275,0-.36l.007-.127H-.98l-.056.1c-.035.063-.078.141-.127.225l-.148.254c-.05.085-.085.141-.106.176L-2.186,3.73h-.507L-3.462,2.4c-.021-.035-.056-.091-.106-.176l-.148-.254c-.049-.084-.091-.162-.126-.225l-.057-.1h-.007l.007.127c.007.085.007.2.014.36s.014.338.021.55.008.444.008.7V4.936h-.967V0H-3.9l1.023,1.692c.091.156.168.282.225.381s.106.176.141.233.057.1.071.12l.021.035h.007l.021-.035c.014-.022.035-.064.071-.12s.084-.134.141-.233.134-.225.225-.381L-.923,0Z" fill="#595b60"/>
      </g>
      <g id="Gruppe_81" data-name="Gruppe 81" transform="translate(136.569 -12.801)">
        <path id="Pfad_89" data-name="Pfad 89" d="M0,0-.021.021a1.8,1.8,0,0,1,.6.1,1.482,1.482,0,0,1,.472.268,1.12,1.12,0,0,1,.3.4,1.209,1.209,0,0,1,.106.5.893.893,0,0,1-.064.339,1.287,1.287,0,0,1-.155.289,1.249,1.249,0,0,1-.211.218.627.627,0,0,1-.247.127V2.27a1.236,1.236,0,0,1,.353.148,1.45,1.45,0,0,1,.31.268,1.312,1.312,0,0,1,.218.36,1.027,1.027,0,0,1,.085.409,1.577,1.577,0,0,1-.106.578,1.257,1.257,0,0,1-.317.472,1.485,1.485,0,0,1-.536.318,2.3,2.3,0,0,1-.761.105H-2.044V0ZM-.07,4.083l.007.014A.816.816,0,0,0,.5,3.906.649.649,0,0,0,.713,3.4a.638.638,0,0,0-.226-.508A.842.842,0,0,0-.078,2.7h-.993V4.083ZM-.2,1.96v.007A.71.71,0,0,0,.3,1.8a.525.525,0,0,0,.191-.409A.5.5,0,0,0,.3.987.741.741,0,0,0-.2.825h-.867V1.96Z" fill="#595b60"/>
      </g>
      <g id="Gruppe_82" data-name="Gruppe 82" transform="translate(143.158 -12.822)">
        <path id="Pfad_90" data-name="Pfad 90" d="M0,0-.007,2.8a2.874,2.874,0,0,1-.148.959,1.908,1.908,0,0,1-.423.7,1.793,1.793,0,0,1-.67.43,2.647,2.647,0,0,1-.881.141,2.649,2.649,0,0,1-.882-.141,1.785,1.785,0,0,1-.67-.43,1.908,1.908,0,0,1-.423-.7,2.943,2.943,0,0,1-.148-.966V0h.98V2.778a1.518,1.518,0,0,0,.289,1.015,1.081,1.081,0,0,0,.861.325,1.06,1.06,0,0,0,.846-.325A1.518,1.518,0,0,0-.988,2.778V0Z" fill="#595b60"/>
      </g>
    </g>
    <g id="Gruppe_84" data-name="Gruppe 84" transform="translate(147.504 -8.803)">
      <path id="Pfad_92" data-name="Pfad 92" d="M0,0V.916H-3.42V-4.019h.98V0Z" fill="#595b60"/>
    </g>
    <g id="Gruppe_86" data-name="Gruppe 86" clip-path="url(#clip-path)">
      <g id="Gruppe_85" data-name="Gruppe 85" transform="translate(151.095 -8.817)">
        <path id="Pfad_93" data-name="Pfad 93" d="M0,0H-2.136L-2.5.938H-3.561L-1.53-3.991h.924L1.424.938H.367ZM-.324-.882l-.5-1.233c-.028-.071-.056-.148-.084-.226S-.959-2.5-.98-2.567s-.042-.126-.056-.169l-.021-.07h-.008l-.021.063c-.014.042-.035.1-.056.169s-.042.142-.071.219-.056.155-.084.226L-1.784-.882Z" fill="#595b60"/>
      </g>
    </g>
    <g id="Gruppe_87" data-name="Gruppe 87" transform="translate(156.605 -12.822)">
      <path id="Pfad_95" data-name="Pfad 95" d="M0,0V.917H-1.551V4.936h-.98V.917H-4.069V0Z" fill="#595b60"/>
    </g>
    <g id="Gruppe_90" data-name="Gruppe 90" clip-path="url(#clip-path)">
      <g id="Gruppe_88" data-name="Gruppe 88" transform="translate(156.804 -10.312)">
        <path id="Pfad_96" data-name="Pfad 96" d="M0,0A2.637,2.637,0,0,1,.2-1.036a2.451,2.451,0,0,1,.55-.818,2.555,2.555,0,0,1,.818-.529,2.6,2.6,0,0,1,.994-.19,2.6,2.6,0,0,1,1,.19,2.54,2.54,0,0,1,.817.529,2.426,2.426,0,0,1,.55.81,2.625,2.625,0,0,1,.2,1.037,2.64,2.64,0,0,1-.2,1.037,2.416,2.416,0,0,1-.55.81,2.54,2.54,0,0,1-.817.529,2.735,2.735,0,0,1-1,.183,2.734,2.734,0,0,1-.994-.183A2.524,2.524,0,0,1,.768,1.84a2.476,2.476,0,0,1-.55-.817,2.639,2.639,0,0,1-.2-1.037ZM1.043-.014a1.781,1.781,0,0,0,.113.649,1.558,1.558,0,0,0,.317.507,1.375,1.375,0,0,0,.487.325,1.628,1.628,0,0,0,.62.112,1.668,1.668,0,0,0,.628-.119,1.387,1.387,0,0,0,.486-.332A1.56,1.56,0,0,0,4.012.621a1.781,1.781,0,0,0,.112-.649,1.793,1.793,0,0,0-.112-.656,1.576,1.576,0,0,0-.318-.508,1.4,1.4,0,0,0-.486-.331,1.631,1.631,0,0,0-.62-.12,1.634,1.634,0,0,0-.621.113,1.36,1.36,0,0,0-.486.324A1.559,1.559,0,0,0,1.163-.7a1.793,1.793,0,0,0-.113.656Z" fill="#595b60"/>
      </g>
      <g id="Gruppe_89" data-name="Gruppe 89" transform="translate(165.43 -7.88)">
        <path id="Pfad_97" data-name="Pfad 97" d="M0,0-.973-1.678h-.8V0h-.98V-4.929h1.728a2.687,2.687,0,0,1,.818.113A1.645,1.645,0,0,1,.4-4.477a1.575,1.575,0,0,1,.381.529,1.642,1.642,0,0,1,.134.676A1.505,1.505,0,0,1,.67-2.4a1.477,1.477,0,0,1-.7.543L1.1,0ZM-1.777-2.566l.868.014a.906.906,0,0,0,.352-.064A.7.7,0,0,0-.31-2.785a.821.821,0,0,0,.148-.233.7.7,0,0,0,.049-.268.715.715,0,0,0-.049-.275A.817.817,0,0,0-.31-3.793a.706.706,0,0,0-.247-.17A.869.869,0,0,0-.9-4.026h-.874Z" fill="#595b60"/>
      </g>
    </g>
    <path id="Pfad_99" data-name="Pfad 99" d="M167.23-7.887h.98v-4.936h-.98Z" fill="#595b60"/>
    <g id="Gruppe_101" data-name="Gruppe 101" clip-path="url(#clip-path)">
      <g id="Gruppe_91" data-name="Gruppe 91" transform="translate(173.394 -12.822)">
        <path id="Pfad_100" data-name="Pfad 100" d="M0,0-.007,2.8a2.874,2.874,0,0,1-.148.959,1.908,1.908,0,0,1-.423.7,1.777,1.777,0,0,1-.67.43,2.647,2.647,0,0,1-.881.141,2.649,2.649,0,0,1-.882-.141,1.785,1.785,0,0,1-.67-.43,1.908,1.908,0,0,1-.423-.7,2.943,2.943,0,0,1-.148-.966V0h.98V2.778a1.513,1.513,0,0,0,.29,1.015,1.079,1.079,0,0,0,.86.325,1.06,1.06,0,0,0,.846-.325A1.518,1.518,0,0,0-.987,2.778V0Z" fill="#595b60"/>
      </g>
      <g id="Gruppe_92" data-name="Gruppe 92" transform="translate(179.129 -12.822)">
        <path id="Pfad_101" data-name="Pfad 101" d="M0,0-.035,4.936H-1V3.4c0-.26,0-.5.007-.711s.014-.395.014-.55-.007-.275,0-.36l.007-.127H-.98l-.056.1c-.036.063-.078.141-.127.225l-.148.254c-.05.085-.085.141-.106.176L-2.186,3.73h-.507L-3.462,2.4c-.021-.035-.056-.091-.106-.176l-.148-.254c-.049-.084-.091-.162-.126-.225l-.057-.1h-.007l.007.127c.007.085.007.2.014.36s.014.338.021.55.007.444.007.7V4.936h-.965V0H-3.9l1.022,1.692c.092.156.17.282.226.381s.106.176.141.233.056.1.071.12l.021.035h.007l.021-.035c.014-.022.035-.064.071-.12s.084-.134.14-.233.135-.225.226-.381L-.924,0Z" fill="#595b60"/>
      </g>
      <g id="Gruppe_93" data-name="Gruppe 93" transform="translate(183.835 -12.801)">
        <path id="Pfad_102" data-name="Pfad 102" d="M0,0-.021.021a1.8,1.8,0,0,1,.6.1,1.476,1.476,0,0,1,.473.268,1.143,1.143,0,0,1,.3.4,1.208,1.208,0,0,1,.105.5.892.892,0,0,1-.063.339,1.287,1.287,0,0,1-.155.289,1.219,1.219,0,0,1-.212.218.624.624,0,0,1-.246.127V2.27a1.218,1.218,0,0,1,.352.148,1.431,1.431,0,0,1,.311.268,1.363,1.363,0,0,1,.218.36,1.045,1.045,0,0,1,.085.409,1.577,1.577,0,0,1-.106.578,1.269,1.269,0,0,1-.317.472,1.5,1.5,0,0,1-.536.318,2.306,2.306,0,0,1-.762.105H-2.044V0ZM-.071,4.083l.008.014A.816.816,0,0,0,.5,3.906.649.649,0,0,0,.712,3.4a.638.638,0,0,0-.225-.508A.842.842,0,0,0-.078,2.7h-.994V4.083ZM-.2,1.96v.007A.71.71,0,0,0,.3,1.8a.525.525,0,0,0,.191-.409A.5.5,0,0,0,.3.987.742.742,0,0,0-.2.825h-.866V1.96Z" fill="#595b60"/>
      </g>
      <g id="Gruppe_94" data-name="Gruppe 94" transform="translate(189.028 -7.88)">
        <path id="Pfad_103" data-name="Pfad 103" d="M0,0-.973-1.678h-.8V0h-.98V-4.929h1.728a2.687,2.687,0,0,1,.818.113A1.645,1.645,0,0,1,.4-4.477a1.589,1.589,0,0,1,.381.529,1.642,1.642,0,0,1,.134.676A1.513,1.513,0,0,1,.67-2.4a1.477,1.477,0,0,1-.7.543L1.1,0ZM-1.777-2.566l.868.014a.906.906,0,0,0,.352-.064A.7.7,0,0,0-.31-2.785a.821.821,0,0,0,.148-.233.7.7,0,0,0,.05-.268.715.715,0,0,0-.05-.275A.817.817,0,0,0-.31-3.793a.706.706,0,0,0-.247-.17A.869.869,0,0,0-.9-4.026h-.874Z" fill="#595b60"/>
      </g>
      <g id="Gruppe_95" data-name="Gruppe 95" transform="translate(194.981 -12.822)">
        <path id="Pfad_104" data-name="Pfad 104" d="M0,0-.007,2.8a2.874,2.874,0,0,1-.148.959,1.908,1.908,0,0,1-.423.7,1.777,1.777,0,0,1-.67.43,2.647,2.647,0,0,1-.881.141,2.649,2.649,0,0,1-.882-.141,1.785,1.785,0,0,1-.67-.43,1.908,1.908,0,0,1-.423-.7,2.943,2.943,0,0,1-.148-.966V0h.981V2.778a1.518,1.518,0,0,0,.288,1.015,1.083,1.083,0,0,0,.861.325,1.059,1.059,0,0,0,.846-.325A1.518,1.518,0,0,0-.987,2.778V0Z" fill="#595b60"/>
      </g>
      <g id="Gruppe_96" data-name="Gruppe 96" transform="translate(199.39 -11.356)">
        <path id="Pfad_105" data-name="Pfad 105" d="M0,0-.021.028A1.374,1.374,0,0,0-.557-.409a1.635,1.635,0,0,0-.7-.162,1.658,1.658,0,0,0-.634.12,1.376,1.376,0,0,0-.487.331,1.415,1.415,0,0,0-.31.508,1.87,1.87,0,0,0-.106.641,1.769,1.769,0,0,0,.12.656,1.436,1.436,0,0,0,.317.5,1.447,1.447,0,0,0,.486.317,1.6,1.6,0,0,0,.614.113,1.593,1.593,0,0,0,.783-.2,1.357,1.357,0,0,0,.543-.529l.987.26a2.627,2.627,0,0,1-.388.593,2.483,2.483,0,0,1-.529.451,2.322,2.322,0,0,1-.648.289,2.533,2.533,0,0,1-.741.106A2.734,2.734,0,0,1-2.249,3.4,2.54,2.54,0,0,1-3.06,2.87a2.461,2.461,0,0,1-.55-.818,2.636,2.636,0,0,1-.2-1.037A2.637,2.637,0,0,1-3.6-.021a2.461,2.461,0,0,1,.55-.818,2.555,2.555,0,0,1,.818-.529,2.6,2.6,0,0,1,.994-.19,2.553,2.553,0,0,1,.705.092,2.546,2.546,0,0,1,.621.261A2.381,2.381,0,0,1,.606-.8,2.4,2.4,0,0,1,1-.261Z" fill="#595b60"/>
      </g>
      <g id="Gruppe_97" data-name="Gruppe 97" transform="translate(204.244 -7.887)">
        <path id="Pfad_106" data-name="Pfad 106" d="M0,0-1.629-2.214l-.55.55V0h-.98V-4.936h.98v.974c0,.4,0,.683-.007.853a1.146,1.146,0,0,0,0,.253h.007a1.767,1.767,0,0,0,.19-.19c.12-.127.3-.3.53-.536L-.106-4.936H1.1L-.966-2.862,1.163,0Z" fill="#595b60"/>
      </g>
      <g id="Gruppe_98" data-name="Gruppe 98" transform="translate(173.702 -33.908)">
        <path id="Pfad_107" data-name="Pfad 107" d="M0,0V-3.049a13.906,13.906,0,0,0-2.39.191A3.958,3.958,0,0,0-4.158-2,7.427,7.427,0,0,0-5.8.145L-5.883.3h-.545V-2.578H-9.317V17.194h2.889V5.906A6.559,6.559,0,0,1-5.051,1.483,5.042,5.042,0,0,1,0,0" fill="#595b60"/>
      </g>
      <g id="Gruppe_99" data-name="Gruppe 99" transform="translate(189.385 -18.947)">
        <path id="Pfad_108" data-name="Pfad 108" d="M0,0,.085-.151H.628V2.233H3.517V-17.538H.628V-6.364A6.9,6.9,0,0,1-.836-1.675,5.154,5.154,0,0,1-4.9.006,4.336,4.336,0,0,1-8.689-1.708,7.266,7.266,0,0,1-9.868-5.986V-17.538h-2.889V-4.675A7.821,7.821,0,0,0-11.725-.492,6.172,6.172,0,0,0-9.013,1.929a8.961,8.961,0,0,0,3.739.777,7.184,7.184,0,0,0,2.122-.325,6.06,6.06,0,0,0,1.881-.959A4.67,4.67,0,0,0,0,0" fill="#595b60"/>
      </g>
      <g id="Gruppe_100" data-name="Gruppe 100" transform="translate(211.645 -20.849)">
        <path id="Pfad_109" data-name="Pfad 109" d="M0,0A6.725,6.725,0,0,1-4.467,1.908a7.555,7.555,0,0,1-2.891-.552A6.878,6.878,0,0,1-9.689-.217a7.144,7.144,0,0,1-1.528-2.417,8.135,8.135,0,0,1-.54-2.946,8.906,8.906,0,0,1,.952-4.227,6.537,6.537,0,0,1,2.564-2.7,6.92,6.92,0,0,1,3.434-.9,6.8,6.8,0,0,1,4.664,1.89l1.969-2.333A10.614,10.614,0,0,0,.291-14.83a11.385,11.385,0,0,0-2.377-.93,10.552,10.552,0,0,0-2.759-.349,9.626,9.626,0,0,0-3.917.816,10.072,10.072,0,0,0-3.206,2.232A10.514,10.514,0,0,0-14.11-9.732a10.558,10.558,0,0,0-.781,4.01,11.075,11.075,0,0,0,.7,3.886,10.107,10.107,0,0,0,2.067,3.353A9.541,9.541,0,0,0-8.9,3.8a10,10,0,0,0,4.022.808,10.183,10.183,0,0,0,3.721-.685A8.6,8.6,0,0,0,1.7,2.1Z" fill="#595b60"/>
      </g>
    </g>
    <g id="Gruppe_102" data-name="Gruppe 102" transform="translate(216.861 -45.862)">
      <path id="Pfad_111" data-name="Pfad 111" d="M0,0V29.148H2.889V18.733l8.825,10.415h4.1L6.544,18.464l9.014-9.087H11.817l-8.928,9.3V0Z" fill="#595b60"/>
    </g>
    <g id="Gruppe_111" data-name="Gruppe 111" clip-path="url(#clip-path)">
      <g id="Gruppe_103" data-name="Gruppe 103" transform="translate(117.418 -15.258)">
        <path id="Pfad_112" data-name="Pfad 112" d="M0,0C2.159-4.489,7.11-13.051,8.977-16.029A90.751,90.751,0,0,1,19.82-30.283a45.464,45.464,0,0,1,6.617-5.964,27.419,27.419,0,0,1,10.625-5.192,33.1,33.1,0,0,0-3.876.511c-.241.073-8.889,1.082-19.913,12.546C.986-15.6-13.3,13.515-13.3,13.515l6.628,1.6c.4-1.024,1.293-3.278,2.337-5.725C-2.433,4.927-.024.049,0,0" fill="#ff7d26"/>
      </g>
      <g id="Gruppe_104" data-name="Gruppe 104" transform="translate(118.213 -14.87)">
        <path id="Pfad_113" data-name="Pfad 113" d="M0,0C-.019.038-1.3,2.642-2.733,5.771-1.6,3.352-.114.3,1.822-3.549,1.119-2.234.486-1.011,0,0" fill="#32beeb"/>
      </g>
      <g id="Gruppe_105" data-name="Gruppe 105" transform="translate(168.972 -47.48)">
        <path id="Pfad_114" data-name="Pfad 114" d="M0,0C-2.482-2.684-6.567-5.905-11.529-5.627a15.185,15.185,0,0,0-2.344.31c.371.037.86.088,1.578.15C-8.153-4.8-5.312-1.873-4.2-.761a27.9,27.9,0,0,1,4.6,6.523h3.83A35.535,35.535,0,0,0,0,0" fill="#ff7d26"/>
      </g>
      <g id="Gruppe_106" data-name="Gruppe 106" transform="translate(169.622 -48.081)">
        <path id="Pfad_115" data-name="Pfad 115" d="M0,0A37.239,37.239,0,0,1,4.606,6.363H8.032C2.618-2.7-4.745-8.087-11.828-8.087c-.151,0-.3,0-.455.008-9.143.3-20.431,9.773-30.193,25.343-1.859,2.964-6.785,11.481-8.933,15.947-.026.052-2.425,4.909-4.317,9.346-.982,2.3-1.831,4.437-2.256,5.524l6.322-1.274c.794-2.423,7.4-21.856,19.676-38.114C-26,.776-20.989-3.635-16.207-5.188a15.318,15.318,0,0,1,3.978-.722C-6.92-6.209-2.608-2.82,0,0" fill="#2d9e45"/>
      </g>
      <g id="Gruppe_107" data-name="Gruppe 107" transform="translate(117.418 -15.258)">
        <path id="Pfad_116" data-name="Pfad 116" d="M0,0C2.159-4.489,7.11-13.051,8.977-16.029A90.751,90.751,0,0,1,19.82-30.283a45.464,45.464,0,0,1,6.617-5.964,27.419,27.419,0,0,1,10.625-5.192,33.1,33.1,0,0,0-3.876.511c-.241.073-8.889,1.082-19.913,12.546C.986-15.6-13.3,13.515-13.3,13.515l6.628,1.6c.4-1.024,1.293-3.278,2.337-5.725C-2.433,4.927-.024.049,0,0" fill="#ff7d26"/>
      </g>
      <g id="Gruppe_108" data-name="Gruppe 108" transform="translate(104.571 -18.369)">
        <path id="Pfad_117" data-name="Pfad 117" d="M0,0A11.282,11.282,0,0,0,3.77,2.5c.022.01.047.016.069.025.82-1.468,1.695-3.009,2.616-4.592-.078-.03-.157-.055-.234-.089A6.685,6.685,0,0,1,4.152-3.586a6.826,6.826,0,0,1-1.422-2.1,6.11,6.11,0,0,1-.5-2.438,6.429,6.429,0,0,1,.871-3.28,6.425,6.425,0,0,1,2.325-2.348A6.108,6.108,0,0,1,8.537-14.6a6.053,6.053,0,0,1,3.14.852,6.443,6.443,0,0,1,1.33,1.032c.981-1.495,1.98-2.97,2.991-4.4a11.979,11.979,0,0,0-2.786-1.625,12.158,12.158,0,0,0-4.685-.908,12.11,12.11,0,0,0-4.666.908A11.54,11.54,0,0,0,.078-16.226a11.475,11.475,0,0,0-2.467,3.691,11.359,11.359,0,0,0-.87,4.4A11.854,11.854,0,0,0-2.421-3.69,11.136,11.136,0,0,0,0,0" fill="#595b60"/>
      </g>
      <g id="Gruppe_109" data-name="Gruppe 109" transform="translate(169.622 -48.081)">
        <path id="Pfad_118" data-name="Pfad 118" d="M0,0A37.239,37.239,0,0,1,4.606,6.363H8.032C2.618-2.7-4.745-8.087-11.828-8.087c-.151,0-.3,0-.455.008-9.143.3-20.431,9.773-30.193,25.343-1.859,2.964-6.785,11.481-8.933,15.947-.026.052-2.425,4.909-4.317,9.346-.982,2.3-1.831,4.437-2.256,5.524l6.322-1.274c.794-2.423,7.4-21.856,19.676-38.114C-26,.776-20.989-3.635-16.207-5.188a15.318,15.318,0,0,1,3.978-.722C-6.92-6.209-2.608-2.82,0,0" fill="#afb0b3"/>
      </g>
      <g id="Gruppe_110" data-name="Gruppe 110" transform="translate(138.673 -36.325)">
        <path id="Pfad_119" data-name="Pfad 119" d="M0,0V19.611H2.889V16.492h.524l.088.126a7.9,7.9,0,0,0,2.981,2.538,9.5,9.5,0,0,0,4.283.928A10.362,10.362,0,0,0,19.7,14.963,10.567,10.567,0,0,0,21.132,9.49a9.924,9.924,0,0,0-.807-3.949,10.148,10.148,0,0,0-2.2-3.243A10.339,10.339,0,0,0,14.848.148,10.243,10.243,0,0,0,6.645.3,7.582,7.582,0,0,0,3.5,2.924l-.088.13H2.889V-3.779C2.3-3.043,1.7-2.276,1.082-1.462Q.533-.736,0,0M3.912,5.867A7.733,7.733,0,0,1,6.643,3.093a7.064,7.064,0,0,1,3.668-1.026,7.905,7.905,0,0,1,3.21.631,7.32,7.32,0,0,1,2.432,1.716,7.616,7.616,0,0,1,1.524,2.432A7.449,7.449,0,0,1,18,9.536a8.01,8.01,0,0,1-1.063,4.145A7.324,7.324,0,0,1,14.12,16.43a7.637,7.637,0,0,1-3.695.954,7.258,7.258,0,0,1-3.782-1.026,7.683,7.683,0,0,1-2.732-2.794A7.584,7.584,0,0,1,2.889,9.726,7.551,7.551,0,0,1,3.912,5.867" fill="#595b60"/>
      </g>
    </g>
    <g id="Gruppe_112" data-name="Gruppe 112" transform="translate(55.098 -14.677)">
      <path id="Pfad_121" data-name="Pfad 121" d="M0,0H5.6l9.778-22.87H9.73L3.791-8.606-2.079-22.87H-7.946L.826-1.955Z" fill="#595b60"/>
    </g>
    <g id="Gruppe_113" data-name="Gruppe 113" transform="translate(55.755 -1.743)">
      <path id="Pfad_122" data-name="Pfad 122" d="M0,0,1.913-4.474h-5.6L-5.574,0Z" fill="#595b60"/>
    </g>
  </g>
</svg>
