<svg xmlns="http://www.w3.org/2000/svg" width="20.316" height="20.21" viewBox="0 0 20.316 20.21">
  <path id="_01" data-name="01" d="M168.895,163.37l-3.174-2.486a1.831,1.831,0,0,0-2.281.064l-1.737,1.524a15.591,15.591,0,0,1-4.584-4.584l1.524-1.737a1.834,1.834,0,0,0,.064-2.281L156.22,150.7a1.632,1.632,0,0,0-2.238-.311l-3.924,2.864,0,.333c.045,3.429,2.015,7.42,5.271,10.675s7.246,5.226,10.676,5.271l.333,0,2.864-3.925A1.639,1.639,0,0,0,168.895,163.37Zm-.731,1.478-2.466,3.38c-2.992-.164-6.581-2.01-9.453-4.883s-4.719-6.46-4.883-9.452l3.38-2.466a.328.328,0,0,1,.195-.062.34.34,0,0,1,.268.126l2.486,3.174a.549.549,0,0,1-.018.636l-2.161,2.462.25.406a17.193,17.193,0,0,0,5.66,5.66l.406.25,2.463-2.162a.572.572,0,0,1,.636-.018l3.174,2.486A.343.343,0,0,1,168.164,164.848Z" transform="translate(-149.681 -149.7)" fill="#575756" stroke="#575756" stroke-width="0.75"/>
</svg>
