<svg xmlns="http://www.w3.org/2000/svg" width="20.506" height="20.179" viewBox="0 0 20.506 20.179">
  <path id="Pfad_140" data-name="Pfad 140" d="M458.7,461.068V457.3a3.959,3.959,0,1,0-7.918,0v7.592a2.572,2.572,0,0,1-5.144,0v-3.633h.248a3.838,3.838,0,0,0,3.833-3.833V452.56a2.078,2.078,0,0,0-1.633-2.027v-.048a1.062,1.062,0,0,0-1.06-1.06h-.083a1.062,1.062,0,0,0-1.06,1.06v1.308a1.062,1.062,0,0,0,1.06,1.06h.083a1.062,1.062,0,0,0,1.037-.838.686.686,0,0,1,.269.545v4.868a2.449,2.449,0,0,1-2.446,2.446H444a2.449,2.449,0,0,1-2.446-2.446V452.56a.685.685,0,0,1,.141-.417,1.062,1.062,0,0,0,1,.71h.083a1.062,1.062,0,0,0,1.06-1.06v-1.308a1.062,1.062,0,0,0-1.06-1.06H442.7a1.062,1.062,0,0,0-1.06,1.06v.092a2.088,2.088,0,0,0-1.469,1.983v4.868A3.838,3.838,0,0,0,444,461.262h.248v3.633a3.959,3.959,0,0,0,7.918,0V457.3a2.572,2.572,0,1,1,5.143,0v3.765a1.918,1.918,0,1,0,1.387,0Z" transform="translate(-439.794 -449.05)" fill="#575756" stroke="#575756" stroke-width="0.75"/>
</svg>
